<?xml version="1.0" encoding="UTF-8" standalone="no"?>
<!-- Created with Inkscape (http://www.inkscape.org/) -->

<svg
   width="179.95349mm"
   height="158.6275mm"
   viewBox="0 0 179.95349 158.6275"
   version="1.1"
   id="svg1"
   xml:space="preserve"
   xmlns="http://www.w3.org/2000/svg"
   xmlns:svg="http://www.w3.org/2000/svg"><defs
     id="defs1"><linearGradient
       id="swatch2"><stop
         style="stop-color:#000000;stop-opacity:0;"
         offset="0"
         id="stop2" /></linearGradient><linearGradient
       id="swatch1"><stop
         style="stop-color:#000000;stop-opacity:0;"
         offset="0"
         id="stop1" /></linearGradient></defs><g
     id="layer2"
     transform="translate(-950.21031,-756.34652)"><path
       style="fill:#000000;fill-opacity:0;stroke:#000000;stroke-width:0.2;stroke-dasharray:none;stroke-opacity:1"
       d="m 1060.702,788.22474 13.1579,4.2e-4 v 3.1164 l 10.9666,1.8e-4 v 1.76811 l 9.6409,-1.1e-4 v -1.768 h 9.702 v 1.768 h 3.9482 v 16.962 h 4.3154 v 1.18743 h -15.3029 v -7.65148 h -17.5984 v -1.68333 l -18.8297,3.8e-4"
       id="path1150" /><path
       style="fill:#000000;fill-opacity:0;stroke:#000000;stroke-width:0.2"
       d="m 1060.702,788.22474 h -0.9112 l 2e-4,1.7021 h -19.7104 v 10.68147 h 19.7104 v 1.31643 h 0.911"
       id="path1151" /><path
       style="fill:#000000;fill-opacity:0;stroke:#000000;stroke-width:0.2"
       d="m 952.06289,832.1898 -1.7198,-16.8671 c -0.57326,-7.7612 6.52639,-11.9504 8.99584,-18.124 3.92465,-6.5705 4.34357,-15.58843 9.78958,-22.48963 l 24.5401,-5.7547 20.83599,0.463 c 18.0137,-3.0647 35.3659,-6.3279 53.0489,-12.9645 1.655,0.5679 2.9826,1.7204 4.8948,1.9843 13.5446,-1.0659 24.8675,6.1 35.6526,12.237 15.3238,18.56493 18.4768,37.95673 21.9605,57.08393 -4.8507,17.5286 -9.7345,36.6778 -6.2177,54.3718 l -4.3657,25.9292 -4.0349,6.813 -87.0479,-3.1088 -1.7198,-34.8589 -21.299,0.2646 -2.0505,-40.0182 -8.26822,-9.8558 z"
       id="path1084" /><g
       id="g1180"
       transform="translate(326.28264,254.44059)"><g
         id="g1179"
         transform="translate(660.00421,350.75482)"><path
           style="fill:#000000;fill-opacity:0;stroke:#000000;stroke-width:0.2"
           d="m 71.356296,217.43354 3e-4,2.575 2.4888,-1e-5 v 3.46266 l -0.5191,3.5e-4 -3e-4,-2.87869 h -1.9697 v 2.87869"
           id="path1152" /><path
           style="fill:#000000;fill-opacity:0;stroke:#000000;stroke-width:0.2"
           d="m 78.607924,217.43354 -3e-4,2.57499 h -2.488328 l -4.7e-4,3.46266 0.51947,3.5e-4 -7e-5,-2.87869 h 1.969698 l 3.7e-4,2.87869"
           id="path1153" /><circle
           style="fill:#000000;fill-opacity:0;stroke:#000000;stroke-width:0.2"
           id="circle1153"
           cx="74.982452"
           cy="222.0322"
           r="0.51264942" /><circle
           style="fill:#000000;fill-opacity:0;stroke:#000000;stroke-width:0.2"
           id="circle1154"
           cx="72.340958"
           cy="222.0322"
           r="0.51264942" /><circle
           style="fill:#000000;fill-opacity:0;stroke:#000000;stroke-width:0.2"
           id="circle1155"
           cx="77.623459"
           cy="222.0322"
           r="0.51264942" /><circle
           style="fill:#000000;fill-opacity:1;stroke:#000000;stroke-width:0.0454544"
           id="circle1156"
           cx="74.982544"
           cy="222.03229"
           r="0.11651081" /><path
           style="fill:#000000;fill-opacity:1;stroke:#000000;stroke-width:0.2"
           d="m 72.007296,221.69854 0.667,0.667"
           id="path1156" /><path
           style="fill:#000000;fill-opacity:1;stroke:#000000;stroke-width:0.2"
           d="m 72.007296,222.36554 0.667,-0.667"
           id="path1157" /><path
           style="fill:#000000;fill-opacity:1;stroke:#000000;stroke-width:0.2"
           d="m 77.290004,221.69854 0.667,0.667"
           id="path1158" /><path
           style="fill:#000000;fill-opacity:1;stroke:#000000;stroke-width:0.2"
           d="m 77.290004,222.36554 0.667,-0.667"
           id="path1159" /><path
           id="path1160"
           style="fill-opacity:0;stroke:#000000;stroke-width:0.2"
           d="m 33.960298,217.43354 78.905002,-3.7e-4 v 18.9581 l -78.905002,2.7e-4 z" /><path
           style="fill:#000000;fill-opacity:0;stroke:#000000;stroke-width:0.2"
           d="m 88.697294,217.43354 v 18.958"
           id="path1161" /><path
           style="fill:#000000;fill-opacity:0;stroke:#000000;stroke-width:0.2"
           d="m 33.960298,225.39454 35.561118,-2e-5 v -7.96098"
           id="path1162" /><path
           style="fill:#000000;fill-opacity:0;stroke:#000000;stroke-width:0.2"
           d="m 33.960298,228.47754 36.112028,0.1 v 7.814"
           id="path1163" /><path
           style="fill:#000000;fill-opacity:0;stroke:#000000;stroke-width:0.2"
           d="m 64.195986,228.47754 v 7.914"
           id="path1164" /><path
           style="fill:#000000;fill-opacity:0;stroke:#000000;stroke-width:0.2"
           d="m 56.330266,228.47754 v 7.914"
           id="path1165" /><path
           style="fill:#000000;fill-opacity:0;stroke:#000000;stroke-width:0.2"
           d="m 52.137246,228.47754 v 7.914"
           id="path1166" /><path
           style="fill:#000000;fill-opacity:0;stroke:#000000;stroke-width:0.2"
           d="m 44.393946,236.39154 v -7.914"
           id="path1167" /><path
           style="fill:#000000;fill-opacity:0;stroke:#000000;stroke-width:0.2"
           d="m 44.393946,225.39454 v -7.961"
           id="path1168" /><path
           style="fill:#000000;fill-opacity:0;stroke:#000000;stroke-width:0.225661"
           d="m 52.137246,217.43354 v 7.961"
           id="path1169" /><path
           style="fill:#000000;fill-opacity:0;stroke:#000000;stroke-width:0.214086"
           d="m 56.330266,217.43354 v 7.961"
           id="path1170" /><path
           style="fill:#000000;fill-opacity:0;stroke:#000000;stroke-width:0.2"
           d="m 64.195986,217.43354 v 7.961"
           id="path1171" /><path
           style="fill:#000000;fill-opacity:0;stroke:#000000;stroke-width:0.2"
           d="m 37.514736,225.39454 v -7.961"
           id="path1172" /><path
           style="fill:#000000;fill-opacity:0;stroke:#000000;stroke-width:0.2"
           d="m 33.960298,228.47754 h -4.217 L 5.0952637,205.06286 6.5435559,203.53083 27.453962,223.35997 c 0.656113,-0.6887 2.679815,-0.37615 2.679815,-0.37615 l 2.514521,2.41072 h 1.312"
           id="path1173" /><path
           style="fill:#000000;fill-opacity:0;stroke:#000000;stroke-width:0.2"
           d="m 27.443343,223.34835 3.65843,3.47759"
           id="path1174" /><path
           style="fill:#000000;fill-opacity:0;stroke:#000000;stroke-width:0.2"
           d="m 80.260518,217.45668 6.2e-5,8.35025 8.466938,-0.004"
           id="path1175" /><path
           style="fill:#000000;fill-opacity:0;stroke:#000000;stroke-width:0.2"
           d="m 67.807486,228.47754 v 7.914"
           id="path1176" /><circle
           style="fill:#000000;fill-opacity:0;stroke:#000000;stroke-width:0.2"
           id="circle1176"
           cx="18.606018"
           cy="216.47327"
           r="0.51264942" /><path
           style="fill:#000000;fill-opacity:1;stroke:#000000;stroke-width:0.2"
           d="m 18.272355,216.13961 0.667,0.667"
           id="path1177" /><path
           style="fill:#000000;fill-opacity:1;stroke:#000000;stroke-width:0.2"
           d="m 18.272355,216.80661 0.667,-0.667"
           id="path1178" /><circle
           style="fill:#000000;fill-opacity:0;stroke:#000000;stroke-width:0.2"
           id="circle1178"
           cx="30.324095"
           cy="224.65948"
           r="0.51264942" /><circle
           style="fill:#000000;fill-opacity:1;stroke:#000000;stroke-width:0.0454544"
           id="circle1179"
           cx="30.324186"
           cy="224.65958"
           r="0.11651081" /></g></g><g
       id="g1195"
       transform="translate(663.63098,260.18427)"><g
         id="g1187"
         transform="translate(303.32114,211.41676)"><g
           id="g1186"
           transform="translate(-43.8277,312.42541)"><path
             style="fill:#000000;fill-opacity:0;stroke:#000000;stroke-width:0.2"
             d="m 187.0941,43.62954 -1e-4,3.07346 h -7.641"
             id="path1180" /><path
             style="fill:#000000;fill-opacity:0;stroke:#000000;stroke-width:0.2"
             d="m 198.238,43.63 -18.7849,-4.6e-4"
             id="path1181" /><path
             style="fill:#000000;fill-opacity:0;stroke:#000000;stroke-width:0.2"
             d="m 199.623,49.47282 -7.6323,1.8e-4 3.3e-4,19.045"
             id="path1182" /><path
             style="fill:#000000;fill-opacity:0;stroke:#000000;stroke-width:0.2"
             d="m 179.453,49.473 h 7.641 l -3e-4,14.24"
             id="path1183" /><path
             style="fill:#000000;fill-opacity:0;stroke:#000000;stroke-width:0.2"
             d="m 187.094,56.282659 h -7.641"
             id="path1184" /><path
             style="fill:#000000;fill-opacity:0;stroke:#000000;stroke-width:0.2"
             d="m 191.991,56.28254 h 6.247"
             id="path1185" /><path
             style="fill:#000000;fill-opacity:0;stroke:#000000;stroke-width:0.2"
             d="m 179.4531,46.703 -4.2e-4,-17.443 h 9.99845 v -3.208439 h 5.79956 l 3.1e-4,3.208439 2.987,-4.7e-4 V 43.63 l 1.38471,-4.05e-4 2.9e-4,10.517849 -1.385,-4.44e-4 v 14.371 h -11.1443 v -4.805 h -7.6407 v -14.24 l -3.37642,-1.56e-4 V 46.703 Z"
             id="path1186" /></g></g><path
         style="fill:#000000;fill-opacity:0;stroke:#000000;stroke-width:0.2"
         d="m 454.74413,551.40342 h -3.39706"
         id="path1187" /><path
         style="fill:#000000;fill-opacity:0;stroke:#000000;stroke-width:0.2"
         d="m 457.41283,573.31499 v -3.73977"
         id="path1188" /><path
         style="fill:#000000;fill-opacity:0;stroke:#000000;stroke-width:0.2"
         d="m 455.69542,573.31499 v -3.74 h -4.21129 v 3.74"
         id="path1189" /><circle
         style="fill:#000000;fill-opacity:0;stroke:#000000;stroke-width:0.2"
         id="circle1189"
         cx="453.29077"
         cy="552.2356"
         r="0.51264942" /><circle
         style="fill:#000000;fill-opacity:1;stroke:#000000;stroke-width:0.0454544"
         id="circle1190"
         cx="453.29086"
         cy="552.23566"
         r="0.11651081" /><circle
         style="fill:#000000;fill-opacity:0;stroke:#000000;stroke-width:0.2"
         id="circle1191"
         cx="453.29117"
         cy="550.65942"
         r="0.51264942" /><path
         style="fill:#000000;fill-opacity:1;stroke:#000000;stroke-width:0.2"
         d="m 452.95774,550.3258 0.667,0.667"
         id="path1191" /><path
         style="fill:#000000;fill-opacity:1;stroke:#000000;stroke-width:0.2"
         d="m 452.95774,550.9928 0.667,-0.667"
         id="path1192" /><circle
         style="fill:#000000;fill-opacity:0;stroke:#000000;stroke-width:0.2"
         id="circle1192"
         cx="456.56714"
         cy="571.32965"
         r="0.51264942" /><circle
         style="fill:#000000;fill-opacity:1;stroke:#000000;stroke-width:0.0454544"
         id="circle1193"
         cx="456.56723"
         cy="571.32971"
         r="0.11651081" /><circle
         style="fill:#000000;fill-opacity:0;stroke:#000000;stroke-width:0.2"
         id="circle1194"
         cx="458.27795"
         cy="571.33002"
         r="0.51264942" /><path
         style="fill:#000000;fill-opacity:1;stroke:#000000;stroke-width:0.2"
         d="m 457.94452,570.99637 0.667,0.667"
         id="path1194" /><path
         style="fill:#000000;fill-opacity:1;stroke:#000000;stroke-width:0.2"
         d="m 457.94452,571.66337 0.667,-0.667"
         id="path1195" /></g><g
       id="g1218"
       transform="translate(477.85655,231.04643)"><path
         style="fill:#000000;fill-opacity:0;stroke:#000000;stroke-width:0.188503"
         d="M 532.03432,542.86307 535.49,551.644"
         id="path1196" /><path
         style="fill:#000000;fill-opacity:0;stroke:#000000;stroke-width:0.188503"
         d="m 507.42062,562.6893 -1.99135,-5.0606 12.84074,-5.05286 m 4.07918,-1.60517 11.14911,-4.38719"
         id="path1197" /><path
         style="fill:#000000;fill-opacity:0;stroke:#000000;stroke-width:0.188503"
         d="m 511.74327,555.14414 1.99168,5.06047"
         id="path1198" /><path
         style="fill:#000000;fill-opacity:0;stroke:#000000;stroke-width:0.188503"
         d="m 518.27004,552.57586 1.99143,5.06057"
         id="path1199" /><path
         style="fill:#000000;fill-opacity:0;stroke:#000000;stroke-width:0.188503"
         d="m 522.34922,550.97071 1.99132,5.06062"
         id="path1200" /><path
         style="fill:#000000;fill-opacity:0;stroke:#000000;stroke-width:0.188503"
         d="m 527.74229,548.84854 1.99169,5.06046"
         id="path1201" /><path
         style="fill:#000000;fill-opacity:0;stroke:#000000;stroke-width:0.188503"
         d="m 520.88819,553.37754 1.36748,3.47417"
         id="path1202" /><path
         style="fill:#000000;fill-opacity:0;stroke:#000000;stroke-width:0.188503"
         d="m 525.97207,555.38931 13.45987,-5.29646 -3.45535,-8.78106 -32.72148,12.87519 -2.66762,-2.12351 -4.96393,0.57582 -2.00521,4.57724 1.24901,3.17324 -21.89947,27.51135 7.38303,5.87686 9.00841,-11.31689"
         id="path1203" /><path
         style="fill:#000000;fill-opacity:0;stroke:#000000;stroke-width:0.188503"
         d="m 475.60638,584.58651 7.38272,5.87724"
         id="path1204" /><path
         style="fill:#000000;fill-opacity:0;stroke:#000000;stroke-width:0.188503"
         d="m 501.77526,566.86354 -4.25486,-3.38693 -8.59404,10.79624 m -2.73009,3.4297 -7.46172,9.3738 m 10.62478,-4.61526 12.41593,-15.59755 3.38067,-1.33232 2.26457,-2.84184 18.55126,-7.29993"
         id="path1205" /><path
         style="fill:#000000;fill-opacity:0;stroke:#000000;stroke-width:0.188503"
         d="m 493.29459,568.7853 4.25462,3.38722"
         id="path1206" /><path
         style="fill:#000000;fill-opacity:0;stroke:#000000;stroke-width:0.188503"
         d="m 488.92638,574.27288 4.25479,3.38701"
         id="path1207" /><path
         style="fill:#000000;fill-opacity:0;stroke:#000000;stroke-width:0.188503"
         d="m 486.1963,577.70258 4.25486,3.38692"
         id="path1208" /><path
         style="fill:#000000;fill-opacity:0;stroke:#000000;stroke-width:0.188503"
         d="m 482.58685,582.23696 4.25461,3.38723"
         id="path1209" /><path
         style="fill:#000000;fill-opacity:0;stroke:#000000;stroke-width:0.188503"
         d="m 488.9256,577.01104 2.9209,2.32553"
         id="path1210" /><path
         style="fill:#000000;fill-opacity:0;stroke:#000000;stroke-width:0.188503"
         d="m 493.61835,557.21653 1.95846,2.64868 3.10564,-2.29635 -1.95845,-2.64868 0.75784,-0.56036 1.95845,2.64867 3.10566,-2.29634 -1.95846,-2.64868"
         id="path1211" /><path
         style="fill:#000000;fill-opacity:0;stroke:#000000;stroke-width:0.188503"
         d="m 495.62356,552.63929 1.47936,2.00071"
         id="path1212" /><path
         style="fill:#000000;fill-opacity:0;stroke:#000000;stroke-width:0.188503"
         d="m 503.96504,553.90763 3.45558,8.78167"
         id="path1213" /><circle
         style="fill:#000000;fill-opacity:0;stroke:#000000;stroke-width:0.188503"
         id="circle1213"
         cx="707.41107"
         cy="-281.09625"
         r="0.48317903"
         transform="rotate(68.520373)" /><circle
         style="fill:#000000;fill-opacity:1;stroke:#000000;stroke-width:0.0428414"
         id="circle1214"
         cx="707.41119"
         cy="-281.09613"
         r="0.10981302"
         transform="rotate(68.520373)" /><circle
         style="fill:#000000;fill-opacity:0;stroke:#000000;stroke-width:0.188503"
         id="circle1215"
         cx="707.41144"
         cy="-283.21494"
         r="0.48317903"
         transform="rotate(68.520373)" /><path
         style="fill:#000000;fill-opacity:1;stroke:#000000;stroke-width:0.188503"
         d="m 522.75573,554.16766 -0.3548,0.81519"
         id="path1215" /><path
         style="fill:#000000;fill-opacity:1;stroke:#000000;stroke-width:0.188503"
         d="m 522.17073,554.39786 0.8152,0.35479"
         id="path1216" /><circle
         style="fill:#000000;fill-opacity:0;stroke:#000000;stroke-width:0.188503"
         id="circle1216"
         cx="-743.62018"
         cy="145.96178"
         r="0.48317903"
         transform="matrix(-0.78238676,-0.62279287,-0.62279287,0.78238676,0,0)" /><path
         style="fill:#000000;fill-opacity:1;stroke:#000000;stroke-width:0.188503"
         d="m 491.33641,577.26964 -0.88337,0.10031"
         id="path1217" /><path
         style="fill:#000000;fill-opacity:1;stroke:#000000;stroke-width:0.188503"
         d="m 490.94489,577.76148 -0.10032,-0.88338"
         id="path1218" /></g><g
       id="g1235"
       transform="translate(520.10642,333.73345)"><path
         style="fill:#000000;fill-opacity:0;stroke:#000000;stroke-width:0.2"
         d="m 580.22265,546.57785 -4.78684,-1.5e-4 -2.2e-4,1.16931 -8.696,-8e-5 -4.8e-4,21.41296 -1.42552,4e-5 4.5e-4,4.38485 h 8.98901 v -1.27892 l 7.38124,7e-5 3e-4,-22.47264 h 0.69396 l 4e-5,-3.21544 z"
         id="path1219" /><path
         style="fill:#000000;fill-opacity:0;stroke:#000000;stroke-width:0.2"
         d="m 566.73959,550.39193 6.36,-4.5e-4 -2.4e-4,-2.64455"
         id="path1220" /><path
         style="fill:#000000;fill-opacity:0;stroke:#000000;stroke-width:0.2"
         d="m 570.01259,547.74693 -1.9e-4,2.645"
         id="path1221" /><path
         style="fill:#000000;fill-opacity:0;stroke:#000000;stroke-width:0.2"
         d="m 581.68459,551.44383 h -6.249 v 9.44798 m 4.1e-4,1.9e-4 6.24859,-1.9e-4"
         id="path1222" /><path
         style="fill:#000000;fill-opacity:0;stroke:#000000;stroke-width:0.2"
         d="m 575.43559,557.4073 h 6.249"
         id="path1223" /><path
         style="fill:#000000;fill-opacity:0;stroke:#000000;stroke-width:0.2"
         d="m 575.43559,563.58122 v 8.68471 m 6.249,-8.68471 h -6.249 l 4.1e-4,-2.68922"
         id="path1224" /><path
         style="fill:#000000;fill-opacity:0;stroke:#000000;stroke-width:0.2"
         d="m 566.73959,551.39708 h 3.273 v 2.57285 l 3.087,-3.8e-4 v 15.19038 h -6.36"
         id="path1225" /><path
         style="fill:#000000;fill-opacity:0;stroke:#000000;stroke-width:0.2"
         d="m 566.73959,560.12008 h 6.36"
         id="path1226" /><path
         style="fill:#000000;fill-opacity:0;stroke:#000000;stroke-width:0.2"
         d="m 566.73959,553.96993 h 3.273"
         id="path1227" /><circle
         style="fill:#000000;fill-opacity:0;stroke:#000000;stroke-width:0.2"
         id="circle1227"
         cx="570.16443"
         cy="-567.75696"
         r="0.51264942"
         transform="rotate(90)" /><circle
         style="fill:#000000;fill-opacity:1;stroke:#000000;stroke-width:0.0454544"
         id="circle1228"
         cx="570.16449"
         cy="-567.75684"
         r="0.11651081"
         transform="rotate(90)" /><circle
         style="fill:#000000;fill-opacity:0;stroke:#000000;stroke-width:0.2"
         id="circle1229"
         cx="572.27209"
         cy="-567.75653"
         r="0.51264942"
         transform="rotate(90)" /><path
         style="fill:#000000;fill-opacity:1;stroke:#000000;stroke-width:0.2"
         d="m 568.09022,571.93869 -0.667,0.667"
         id="path1229" /><path
         style="fill:#000000;fill-opacity:1;stroke:#000000;stroke-width:0.2"
         d="m 567.42322,571.93869 0.667,0.667"
         id="path1230" /><circle
         style="fill:#000000;fill-opacity:0;stroke:#000000;stroke-width:0.2"
         id="circle1230"
         cx="-550.16022"
         cy="580.19794"
         r="0.51264942"
         transform="rotate(-90)" /><circle
         style="fill:#000000;fill-opacity:1;stroke:#000000;stroke-width:0.0454544"
         id="circle1231"
         cx="-550.16016"
         cy="580.19806"
         r="0.11651081"
         transform="rotate(-90)" /><circle
         style="fill:#000000;fill-opacity:0;stroke:#000000;stroke-width:0.2"
         id="circle1232"
         cx="-547.88715"
         cy="580.19836"
         r="0.51264942"
         transform="rotate(-90)" /><path
         style="fill:#000000;fill-opacity:1;stroke:#000000;stroke-width:0.2"
         d="m 579.86467,548.22061 0.667,-0.667"
         id="path1232" /><path
         style="fill:#000000;fill-opacity:1;stroke:#000000;stroke-width:0.2"
         d="m 580.53167,548.22061 -0.667,-0.667"
         id="path1233" /><path
         style="fill:#000000;fill-opacity:0;stroke:#000000;stroke-width:0.2"
         d="m 565.31359,571.27525 h 4.11905"
         id="path1234" /><path
         style="fill:#000000;fill-opacity:0;stroke:#000000;stroke-width:0.2"
         d="m 582.37859,548.97911 h -4.46171"
         id="path1235" /></g></g></svg>
