<?xml version="1.0" encoding="UTF-8" standalone="no"?>
<!-- Created with Inkscape (http://www.inkscape.org/) -->

<svg
   width="179.95349mm"
   height="158.6275mm"
   viewBox="0 0 179.95349 158.6275"
   version="1.1"
   id="svg1"
   xml:space="preserve"
   xmlns="http://www.w3.org/2000/svg"
   xmlns:svg="http://www.w3.org/2000/svg"><defs
     id="defs1"><linearGradient
       id="swatch2"><stop
         style="stop-color:#000000;stop-opacity:0;"
         offset="0"
         id="stop2" /></linearGradient><linearGradient
       id="swatch1"><stop
         style="stop-color:#000000;stop-opacity:0;"
         offset="0"
         id="stop1" /></linearGradient></defs><g
     id="layer2"
     transform="translate(-950.21031,-368.99659)"><g
       id="g1335"
       transform="translate(686.5944,-37.38338)"><g
         id="g1334"
         transform="translate(300.96354,314.19271)"><path
           style="fill:#000000;fill-opacity:0;stroke:#000000;stroke-width:0.2"
           d="m 70.050029,158.41048 3e-4,2.575 2.4888,-1e-5 v 3.46266 l -0.5191,3.5e-4 -3e-4,-2.87869 h -1.9697 v 2.87869"
           id="path1328" /><path
           style="fill:#000000;fill-opacity:0;stroke:#000000;stroke-width:0.2"
           d="m 77.301659,158.41048 -3e-4,2.57499 h -2.48833 l -4.7e-4,3.46266 0.51947,3.5e-4 -7e-5,-2.87869 h 1.9697 l 3.7e-4,2.87869"
           id="path1329" /><circle
           style="fill:#000000;fill-opacity:0;stroke:#000000;stroke-width:0.2"
           id="circle1329"
           cx="71.034683"
           cy="163.00912"
           r="0.51264942" /><circle
           style="fill:#000000;fill-opacity:0;stroke:#000000;stroke-width:0.2"
           id="circle1330"
           cx="76.317184"
           cy="163.00912"
           r="0.51264942" /><path
           style="fill:#000000;fill-opacity:1;stroke:#000000;stroke-width:0.2"
           d="m 70.701029,162.67548 0.667,0.667"
           id="path1330" /><path
           style="fill:#000000;fill-opacity:1;stroke:#000000;stroke-width:0.2"
           d="m 70.701029,163.34248 0.667,-0.667"
           id="path1331" /><path
           style="fill:#000000;fill-opacity:1;stroke:#000000;stroke-width:0.2"
           d="m 75.983739,162.67548 0.667,0.667"
           id="path1332" /><path
           style="fill:#000000;fill-opacity:1;stroke:#000000;stroke-width:0.2"
           d="m 75.983739,163.34248 0.667,-0.667"
           id="path1333" /><path
           id="path1334"
           style="fill-opacity:0;stroke:#000000;stroke-width:0.2"
           d="m 32.654031,158.41048 78.905009,-3.7e-4 v 18.9581 l -78.905009,2.7e-4 z" /></g></g><g
       id="g1355"
       transform="translate(663.63098,-34.354861)"><g
         id="g1347"
         transform="translate(303.32114,118.60589)"><g
           id="g1346"
           transform="translate(-43.8277,312.42541)"><path
             style="fill:#000000;fill-opacity:0;stroke:#000000;stroke-width:0.2"
             d="m 199.623,49.47282 -7.6323,1.8e-4"
             id="path1337" /><path
             style="fill:#000000;fill-opacity:0;stroke:#000000;stroke-width:0.2"
             d="m 187.09458,29.26 h 2.35655 v -3.208439 h 5.79956 l 3.1e-4,3.208439 2.987,-4.7e-4 V 43.63 l 1.38471,-4.05e-4 2.9e-4,10.517849 -1.385,-4.44e-4 v 14.371 h -11.1443 v -4.805 z"
             id="path1346" /></g></g><path
         style="fill:#000000;fill-opacity:0;stroke:#000000;stroke-width:0.2"
         d="m 454.74413,458.59255 h -3.39706"
         id="path1347" /><path
         style="fill:#000000;fill-opacity:0;stroke:#000000;stroke-width:0.2"
         d="m 457.41283,480.50412 v -3.73977"
         id="path1348" /><path
         style="fill:#000000;fill-opacity:0;stroke:#000000;stroke-width:0.2"
         d="m 455.69542,480.50412 v -3.74 h -4.21129 v 3.74"
         id="path1349" /><circle
         style="fill:#000000;fill-opacity:0;stroke:#000000;stroke-width:0.2"
         id="circle1349"
         cx="453.29077"
         cy="459.42471"
         r="0.51264942" /><circle
         style="fill:#000000;fill-opacity:1;stroke:#000000;stroke-width:0.0454544"
         id="circle1350"
         cx="453.29086"
         cy="459.4248"
         r="0.11651081" /><circle
         style="fill:#000000;fill-opacity:0;stroke:#000000;stroke-width:0.2"
         id="circle1351"
         cx="453.29117"
         cy="457.84857"
         r="0.51264942" /><path
         style="fill:#000000;fill-opacity:1;stroke:#000000;stroke-width:0.2"
         d="m 452.95774,457.51493 0.667,0.667"
         id="path1351" /><path
         style="fill:#000000;fill-opacity:1;stroke:#000000;stroke-width:0.2"
         d="m 452.95774,458.18193 0.667,-0.667"
         id="path1352" /><circle
         style="fill:#000000;fill-opacity:0;stroke:#000000;stroke-width:0.2"
         id="circle1352"
         cx="456.56714"
         cy="478.51877"
         r="0.51264942" /><circle
         style="fill:#000000;fill-opacity:1;stroke:#000000;stroke-width:0.0454544"
         id="circle1353"
         cx="456.56723"
         cy="478.51886"
         r="0.11651081" /><circle
         style="fill:#000000;fill-opacity:0;stroke:#000000;stroke-width:0.2"
         id="circle1354"
         cx="458.27795"
         cy="478.51917"
         r="0.51264942" /><path
         style="fill:#000000;fill-opacity:1;stroke:#000000;stroke-width:0.2"
         d="m 457.94452,478.1855 0.667,0.667"
         id="path1354" /><path
         style="fill:#000000;fill-opacity:1;stroke:#000000;stroke-width:0.2"
         d="m 457.94452,478.8525 0.667,-0.667"
         id="path1355" /></g><path
       style="fill:#000000;fill-opacity:0;stroke:#000000;stroke-width:0.2;stroke-dasharray:none;stroke-opacity:1"
       d="m 1060.702,400.87474 13.1579,4.2e-4 v 3.1164 l 10.9666,1.8e-4 v 1.76811 l 9.6409,-1.1e-4 v -1.768 h 9.702 v 1.768 h 3.9482 v 16.962 h 4.3154 v 1.18743 h -15.3029 v -7.65148 h -17.5984 v -1.68333 l -18.8297,3.8e-4"
       id="path1777" /><path
       style="fill:#000000;fill-opacity:0;stroke:#000000;stroke-width:0.2"
       d="m 1060.702,400.87474 h -0.9112 l 2e-4,1.7021 h -19.7104 v 10.68147 h 19.7104 v 1.31643 h 0.911"
       id="path1778" /><path
       style="fill:#000000;fill-opacity:0;stroke:#000000;stroke-width:0.2"
       d="m 952.06289,444.8398 -1.7198,-16.8671 c -0.57326,-7.7612 6.52639,-11.9504 8.99584,-18.124 3.92465,-6.5705 4.34357,-15.58843 9.78958,-22.48963 l 24.5401,-5.7547 20.83599,0.463 c 18.0137,-3.0647 35.3659,-6.3279 53.0489,-12.9645 1.655,0.5679 2.9826,1.7204 4.8948,1.9843 13.5446,-1.0659 24.8675,6.1 35.6526,12.237 15.3238,18.56493 18.4768,37.95673 21.9605,57.08393 -4.8507,17.5286 -9.7345,36.6778 -6.2177,54.3718 l -4.3657,25.9292 -4.0349,6.813 -87.0479,-3.1088 -1.7198,-34.8589 -21.299,0.2646 -2.0505,-40.0182 -8.26822,-9.8558 z"
       id="path1779" /></g></svg>
