<?xml version="1.0" encoding="UTF-8" standalone="no"?>
<!-- Created with Inkscape (http://www.inkscape.org/) -->

<svg
   width="179.95349mm"
   height="158.6275mm"
   viewBox="0 0 179.95349 158.6275"
   version="1.1"
   id="svg1"
   xml:space="preserve"
   xmlns="http://www.w3.org/2000/svg"
   xmlns:svg="http://www.w3.org/2000/svg"><defs
     id="defs1"><linearGradient
       id="swatch2"><stop
         style="stop-color:#000000;stop-opacity:0;"
         offset="0"
         id="stop2" /></linearGradient><linearGradient
       id="swatch1"><stop
         style="stop-color:#000000;stop-opacity:0;"
         offset="0"
         id="stop1" /></linearGradient></defs><g
     id="layer2"
     transform="translate(-950.21031,-557.37985)"><g
       id="g1385"
       transform="translate(685.1187,105.51801)"><g
         id="g1384"
         transform="translate(300.96354,329.27396)"><path
           style="fill:#000000;fill-opacity:0;stroke:#000000;stroke-width:0.2"
           d="m 71.575728,207.88438 3e-4,-8.60975 3.22401,-1.1e-4 -3.1e-4,8.60986 m 1.356,0 v -8.60991 l 3.040998,-1e-4 1.6e-4,8.61"
           id="path1356" /><path
           style="fill:#000000;fill-opacity:0;stroke:#000000;stroke-width:0.2"
           d="m 80.356726,198.40538 h 8.467"
           id="path1357" /><path
           style="fill:#000000;fill-opacity:0;stroke:#000000;stroke-width:0.2"
           d="m 71.482728,188.92638 3e-4,2.575 2.4888,-1e-5 v 3.46266 l -0.5191,3.5e-4 -3e-4,-2.87869 h -1.9697 v 2.87869"
           id="path1358" /><path
           style="fill:#000000;fill-opacity:0;stroke:#000000;stroke-width:0.2"
           d="m 78.734358,188.92638 -3e-4,2.57499 h -2.48833 l -4.7e-4,3.46266 0.51947,3.5e-4 -7e-5,-2.87869 h 1.9697 l 3.7e-4,2.87869"
           id="path1359" /><circle
           style="fill:#000000;fill-opacity:0;stroke:#000000;stroke-width:0.2"
           id="circle1359"
           cx="75.108879"
           cy="193.52502"
           r="0.51264942" /><circle
           style="fill:#000000;fill-opacity:0;stroke:#000000;stroke-width:0.2"
           id="circle1360"
           cx="72.467384"
           cy="193.52502"
           r="0.51264942" /><circle
           style="fill:#000000;fill-opacity:0;stroke:#000000;stroke-width:0.2"
           id="circle1361"
           cx="77.749886"
           cy="193.52502"
           r="0.51264942" /><circle
           style="fill:#000000;fill-opacity:1;stroke:#000000;stroke-width:0.0454544"
           id="circle1362"
           cx="75.108971"
           cy="193.52512"
           r="0.11651081" /><path
           style="fill:#000000;fill-opacity:1;stroke:#000000;stroke-width:0.2"
           d="m 72.133728,193.19138 0.667,0.667"
           id="path1362" /><path
           style="fill:#000000;fill-opacity:1;stroke:#000000;stroke-width:0.2"
           d="m 72.133728,193.85838 0.667,-0.667"
           id="path1363" /><path
           style="fill:#000000;fill-opacity:1;stroke:#000000;stroke-width:0.2"
           d="m 77.416438,193.19138 0.667,0.667"
           id="path1364" /><path
           style="fill:#000000;fill-opacity:1;stroke:#000000;stroke-width:0.2"
           d="m 77.416438,193.85838 0.667,-0.667"
           id="path1365" /><path
           id="path1366"
           style="fill-opacity:0;stroke:#000000;stroke-width:0.2"
           d="m 34.08673,188.92638 78.90501,-3.7e-4 v 18.9581 l -78.90501,2.7e-4 z" /><path
           style="fill:#000000;fill-opacity:0;stroke:#000000;stroke-width:0.2"
           d="m 88.823726,188.92638 v 18.958"
           id="path1367" /><path
           style="fill:#000000;fill-opacity:0;stroke:#000000;stroke-width:0.2"
           d="m 34.08673,196.88738 35.561118,-2e-5 v -7.96098"
           id="path1368" /><path
           style="fill:#000000;fill-opacity:0;stroke:#000000;stroke-width:0.2"
           d="m 34.08673,199.97038 36.112028,0.1 v 7.814"
           id="path1369" /><path
           style="fill:#000000;fill-opacity:0;stroke:#000000;stroke-width:0.2"
           d="m 64.322418,199.97038 v 7.914"
           id="path1370" /><path
           style="fill:#000000;fill-opacity:0;stroke:#000000;stroke-width:0.2"
           d="m 56.456698,199.97038 v 7.914"
           id="path1371" /><path
           style="fill:#000000;fill-opacity:0;stroke:#000000;stroke-width:0.2"
           d="m 52.263678,199.97038 v 7.914"
           id="path1372" /><path
           style="fill:#000000;fill-opacity:0;stroke:#000000;stroke-width:0.2"
           d="m 44.520378,207.88438 v -7.914"
           id="path1373" /><path
           style="fill:#000000;fill-opacity:0;stroke:#000000;stroke-width:0.2"
           d="m 80.356726,188.92638 2.8e-4,18.958"
           id="path1374" /><path
           style="fill:#000000;fill-opacity:0;stroke:#000000;stroke-width:0.2"
           d="m 44.520378,196.88738 v -7.961"
           id="path1375" /><path
           style="fill:#000000;fill-opacity:0;stroke:#000000;stroke-width:0.225661"
           d="m 52.263678,188.92638 v 7.961"
           id="path1376" /><path
           style="fill:#000000;fill-opacity:0;stroke:#000000;stroke-width:0.214086"
           d="m 56.456698,188.92638 v 7.961"
           id="path1377" /><path
           style="fill:#000000;fill-opacity:0;stroke:#000000;stroke-width:0.2"
           d="m 64.322418,188.92638 v 7.961"
           id="path1378" /><path
           style="fill:#000000;fill-opacity:0;stroke:#000000;stroke-width:0.2"
           d="m 37.641168,196.88738 v -7.961"
           id="path1379" /><path
           style="fill:#000000;fill-opacity:1;stroke:#000000;stroke-width:0.2"
           d="m 71.575728,203.57938 h 3.224"
           id="path1380" /><path
           style="fill:#000000;fill-opacity:1;stroke:#000000;stroke-width:0.2"
           d="m 76.155728,203.57938 h 3.040998"
           id="path1381" /><path
           style="fill:#000000;fill-opacity:0;stroke:#000000;stroke-width:0.2"
           d="m 34.08673,199.97038 h -4.217 l -2.539508,-2.42152 c 0,0 -0.351471,-2.05068 0.276496,-2.67388 l 3.687506,3.54548 1.489715,-1.53981 1.302791,0.007"
           id="path1382" /><circle
           style="fill:#000000;fill-opacity:0;stroke:#000000;stroke-width:0.2"
           id="circle1382"
           cx="29.284866"
           cy="197.92339"
           r="0.51264942" /><path
           style="fill:#000000;fill-opacity:1;stroke:#000000;stroke-width:0.2"
           d="m 28.951204,197.58973 0.667,0.667"
           id="path1383" /><path
           style="fill:#000000;fill-opacity:1;stroke:#000000;stroke-width:0.2"
           d="m 28.951204,198.25673 0.667,-0.667"
           id="path1384" /></g></g><path
       style="fill:#000000;fill-opacity:0;stroke:#000000;stroke-width:0.2"
       d="m 1110.2185,614.31944 -10e-5,34.45256"
       id="path1385" /><path
       style="fill:#000000;fill-opacity:0;stroke:#000000;stroke-width:0.2"
       d="m 1122.7474,634.53226 -7.6323,1.8e-4"
       id="path1387" /><path
       style="fill:#000000;fill-opacity:0;stroke:#000000;stroke-width:0.2"
       d="m 1102.5771,614.31944 h 9.9985 V 611.111 h 5.7995 l 3e-4,3.20844 2.987,-4.7e-4 v 14.37047 l 1.3847,-4.1e-4 3e-4,10.51785 -1.385,-4.4e-4 v 14.371 h -11.1443 V 648.772 l -7.6407,4.4e-4 z"
       id="path1396" /><path
       style="fill:#000000;fill-opacity:0;stroke:#000000;stroke-width:0.2"
       d="m 1118.3751,612.62069 h -3.397"
       id="path1397" /><path
       style="fill:#000000;fill-opacity:0;stroke:#000000;stroke-width:0.2"
       d="m 1121.0438,634.53226 v -3.73977"
       id="path1398" /><path
       style="fill:#000000;fill-opacity:0;stroke:#000000;stroke-width:0.2"
       d="m 1119.3264,634.53226 v -3.74 h -4.2113 v 3.74"
       id="path1399" /><circle
       style="fill:#000000;fill-opacity:0;stroke:#000000;stroke-width:0.2"
       id="circle1399"
       cx="1116.9218"
       cy="613.45288"
       r="0.51264942" /><circle
       style="fill:#000000;fill-opacity:1;stroke:#000000;stroke-width:0.0454544"
       id="circle1400"
       cx="1116.9219"
       cy="613.45294"
       r="0.11651081" /><circle
       style="fill:#000000;fill-opacity:0;stroke:#000000;stroke-width:0.2"
       id="circle1401"
       cx="1116.9221"
       cy="611.87671"
       r="0.51264942" /><path
       style="fill:#000000;fill-opacity:1;stroke:#000000;stroke-width:0.2"
       d="m 1116.5887,611.54307 0.667,0.667"
       id="path1401" /><path
       style="fill:#000000;fill-opacity:1;stroke:#000000;stroke-width:0.2"
       d="m 1116.5887,612.21007 0.667,-0.667"
       id="path1402" /><circle
       style="fill:#000000;fill-opacity:0;stroke:#000000;stroke-width:0.2"
       id="circle1402"
       cx="1120.1981"
       cy="632.54694"
       r="0.51264942" /><circle
       style="fill:#000000;fill-opacity:1;stroke:#000000;stroke-width:0.0454544"
       id="circle1403"
       cx="1120.1982"
       cy="632.547"
       r="0.11651081" /><circle
       style="fill:#000000;fill-opacity:0;stroke:#000000;stroke-width:0.2"
       id="circle1404"
       cx="1121.9089"
       cy="632.5473"
       r="0.51264942" /><path
       style="fill:#000000;fill-opacity:1;stroke:#000000;stroke-width:0.2"
       d="m 1121.5755,632.21364 0.667,0.667"
       id="path1404" /><path
       style="fill:#000000;fill-opacity:1;stroke:#000000;stroke-width:0.2"
       d="m 1121.5755,632.88064 0.667,-0.667"
       id="path1405" /><g
       id="g1429"
       transform="matrix(0.87705394,-0.34512054,0.34512054,0.87705394,565.34724,476.5983)"><path
         style="fill:#000000;fill-opacity:0;stroke:#000000;stroke-width:0.2"
         d="m 400.69278,269.80269 3.9e-4,10.012"
         id="path1406" /><path
         style="fill:#000000;fill-opacity:0;stroke:#000000;stroke-width:0.2"
         d="m 368.689,279.81469 -1e-5,-5.77 14.64078,-3e-5 m 4.65101,-1e-5 12.712,-2e-5"
         id="path1407" /><path
         style="fill:#000000;fill-opacity:0;stroke:#000000;stroke-width:0.2"
         d="m 375.88809,274.04469 3.9e-4,5.77"
         id="path1408" /><path
         style="fill:#000000;fill-opacity:0;stroke:#000000;stroke-width:0.2"
         d="m 383.32979,274.04469 10e-5,5.77"
         id="path1409" /><path
         style="fill:#000000;fill-opacity:0;stroke:#000000;stroke-width:0.2"
         d="m 387.98079,274.04469 -3e-5,5.77001"
         id="path1410" /><path
         style="fill:#000000;fill-opacity:0;stroke:#000000;stroke-width:0.2"
         d="m 394.12986,274.0447 4e-4,5.76999"
         id="path1411" /><path
         style="fill:#000000;fill-opacity:0;stroke:#000000;stroke-width:0.2"
         d="m 385.60325,275.85336 3.9e-4,3.96133"
         id="path1412" /><path
         style="fill:#000000;fill-opacity:0;stroke:#000000;stroke-width:0.2"
         d="m 389.841,279.81469 h 15.34669 v -10.012 l -37.30813,-6.9e-4 -1.80876,-3.13294 -5.12462,-1.35999 -3.75803,3.74009 3.4e-4,3.6182 -32.30972,18.65404 5.00611,8.67059 13.29071,-7.67341"
         id="path1413" /><path
         style="fill:#000000;fill-opacity:0;stroke:#000000;stroke-width:0.2"
         d="m 328.7715,289.07394 5.00566,8.67084"
         id="path1414" /><path
         style="fill:#000000;fill-opacity:0;stroke:#000000;stroke-width:0.2"
         d="m 361.4936,281.74269 -2.88501,-4.99696 -12.67931,7.32036 m -4.02789,2.3255 -11.00875,6.35589 m 12.28295,-0.4289 18.31801,-10.57589 3.85536,-0.002 3.33989,-1.92597 21.15179,-1e-5"
         id="path1415" /><path
         style="fill:#000000;fill-opacity:0;stroke:#000000;stroke-width:0.2"
         d="m 352.37399,280.34528 2.88465,4.99715"
         id="path1416" /><path
         style="fill:#000000;fill-opacity:0;stroke:#000000;stroke-width:0.2"
         d="m 345.92929,284.06612 2.8849,4.99702"
         id="path1417" /><path
         style="fill:#000000;fill-opacity:0;stroke:#000000;stroke-width:0.2"
         d="m 341.90141,286.39163 2.88501,4.99695"
         id="path1418" /><path
         style="fill:#000000;fill-opacity:0;stroke:#000000;stroke-width:0.2"
         d="m 336.57616,289.46616 2.88464,4.99716"
         id="path1419" /><path
         style="fill:#000000;fill-opacity:0;stroke:#000000;stroke-width:0.2"
         d="m 344.86473,286.76922 1.98034,3.43079"
         id="path1420" /><path
         style="fill:#000000;fill-opacity:0;stroke:#000000;stroke-width:0.2"
         d="m 357.18815,269.04916 0.90457,3.37592 3.95836,-1.06064 -0.90457,-3.37592 0.96593,-0.25882 0.90456,3.37591 3.95837,-1.06063 -0.90457,-3.37592"
         id="path1421" /><path
         style="fill:#000000;fill-opacity:0;stroke:#000000;stroke-width:0.2"
         d="m 360.94618,265.30907 0.68329,2.55004"
         id="path1422" /><path
         style="fill:#000000;fill-opacity:0;stroke:#000000;stroke-width:0.2"
         d="m 368.689,269.802 v 10.01269"
         id="path1423" /><circle
         style="fill:#000000;fill-opacity:0;stroke:#000000;stroke-width:0.2"
         id="circle1423"
         cx="277.69202"
         cy="-384.55853"
         r="0.51264942"
         transform="rotate(90)" /><circle
         style="fill:#000000;fill-opacity:1;stroke:#000000;stroke-width:0.0454544"
         id="circle1424"
         cx="277.69214"
         cy="-384.55841"
         r="0.11651081"
         transform="rotate(90)" /><circle
         style="fill:#000000;fill-opacity:0;stroke:#000000;stroke-width:0.2"
         id="circle1425"
         cx="277.69244"
         cy="-386.80646"
         r="0.51264942"
         transform="rotate(90)" /><path
         style="fill:#000000;fill-opacity:1;stroke:#000000;stroke-width:0.2"
         d="m 387.14011,277.35899 -0.667,0.667"
         id="path1425" /><path
         style="fill:#000000;fill-opacity:1;stroke:#000000;stroke-width:0.2"
         d="m 386.47311,277.35899 0.66701,0.667"
         id="path1426" /><circle
         style="fill:#000000;fill-opacity:0;stroke:#000000;stroke-width:0.2"
         id="circle1426"
         cx="-422.62085"
         cy="-154.07379"
         r="0.51264942"
         transform="matrix(-0.5,-0.8660254,-0.8660254,0.5,0,0)" /><circle
         style="fill:#000000;fill-opacity:1;stroke:#000000;stroke-width:0.0454544"
         id="circle1427"
         cx="-422.62076"
         cy="-154.07367"
         r="0.11651081"
         transform="matrix(-0.5,-0.8660254,-0.8660254,0.5,0,0)" /><circle
         style="fill:#000000;fill-opacity:0;stroke:#000000;stroke-width:0.2"
         id="circle1428"
         cx="-422.62042"
         cy="-156.32172"
         r="0.51264942"
         transform="matrix(-0.5,-0.8660254,-0.8660254,0.5,0,0)" /><path
         style="fill:#000000;fill-opacity:1;stroke:#000000;stroke-width:0.2"
         d="m 347.14447,287.96114 -0.91113,-0.24415"
         id="path1428" /><path
         style="fill:#000000;fill-opacity:1;stroke:#000000;stroke-width:0.2"
         d="m 346.56684,288.29463 0.24414,-0.91114"
         id="path1429" /></g><path
       style="fill:#000000;fill-opacity:0;stroke:#000000;stroke-width:0.2;stroke-dasharray:none;stroke-opacity:1"
       d="m 1060.702,589.25807 13.1579,4.2e-4 v 3.1164 l 10.9666,1.8e-4 v 1.76811 l 9.6409,-1.1e-4 v -1.768 h 9.702 v 1.768 h 3.9482 v 16.962 h 4.3154 v 1.18743 h -15.3029 v -7.65148 h -17.5984 v -1.68333 l -18.8297,3.8e-4"
       id="path1690" /><path
       style="fill:#000000;fill-opacity:0;stroke:#000000;stroke-width:0.2"
       d="m 1060.702,589.25807 h -0.9112 l 2e-4,1.7021 h -19.7104 v 10.68147 h 19.7104 v 1.31643 h 0.911"
       id="path1691" /><path
       style="fill:#000000;fill-opacity:0;stroke:#000000;stroke-width:0.2"
       d="m 952.06289,633.22313 -1.7198,-16.8671 c -0.57326,-7.7612 6.52639,-11.9504 8.99584,-18.124 3.92465,-6.5705 4.34357,-15.58843 9.78958,-22.48963 l 24.5401,-5.7547 20.83599,0.463 c 18.0137,-3.0647 35.3659,-6.3279 53.0489,-12.9645 1.655,0.5679 2.9826,1.7204 4.8948,1.9843 13.5446,-1.0659 24.8675,6.1 35.6526,12.237 15.3238,18.56493 18.4768,37.95673 21.9605,57.08393 -4.8507,17.5286 -9.7345,36.6778 -6.2177,54.3718 l -4.3657,25.9292 -4.0349,6.813 -87.0479,-3.1088 -1.7198,-34.8589 -21.299,0.2646 -2.0505,-40.0182 -8.26822,-9.8558 z"
       id="path1692" /><g
       id="g1776"
       transform="translate(520.10642,134.76678)"><path
         style="fill:#000000;fill-opacity:0;stroke:#000000;stroke-width:0.2"
         d="m 580.22265,546.57785 -4.78684,-1.5e-4 -2.2e-4,1.16931 -8.696,-8e-5 -4.8e-4,21.41296 -1.42552,4e-5 4.5e-4,4.38485 h 8.98901 v -1.27892 l 7.38124,7e-5 3e-4,-22.47264 h 0.69396 l 4e-5,-3.21544 z"
         id="path1760" /><path
         style="fill:#000000;fill-opacity:0;stroke:#000000;stroke-width:0.2"
         d="m 566.73959,550.39193 6.36,-4.5e-4 -2.4e-4,-2.64455"
         id="path1761" /><path
         style="fill:#000000;fill-opacity:0;stroke:#000000;stroke-width:0.2"
         d="m 570.01259,547.74693 -1.9e-4,2.645"
         id="path1762" /><path
         style="fill:#000000;fill-opacity:0;stroke:#000000;stroke-width:0.2"
         d="m 566.73959,551.39708 h 3.273 v 2.57285"
         id="path1766" /><path
         style="fill:#000000;fill-opacity:0;stroke:#000000;stroke-width:0.2"
         d="m 566.73959,553.96993 h 3.273"
         id="path1768" /><circle
         style="fill:#000000;fill-opacity:0;stroke:#000000;stroke-width:0.2"
         id="circle1768"
         cx="570.16443"
         cy="-567.75696"
         r="0.51264942"
         transform="rotate(90)" /><circle
         style="fill:#000000;fill-opacity:1;stroke:#000000;stroke-width:0.0454544"
         id="circle1769"
         cx="570.16449"
         cy="-567.75684"
         r="0.11651081"
         transform="rotate(90)" /><circle
         style="fill:#000000;fill-opacity:0;stroke:#000000;stroke-width:0.2"
         id="circle1770"
         cx="572.27209"
         cy="-567.75653"
         r="0.51264942"
         transform="rotate(90)" /><path
         style="fill:#000000;fill-opacity:1;stroke:#000000;stroke-width:0.2"
         d="m 568.09022,571.93869 -0.667,0.667"
         id="path1770" /><path
         style="fill:#000000;fill-opacity:1;stroke:#000000;stroke-width:0.2"
         d="m 567.42322,571.93869 0.667,0.667"
         id="path1771" /><circle
         style="fill:#000000;fill-opacity:0;stroke:#000000;stroke-width:0.2"
         id="circle1771"
         cx="-550.16022"
         cy="580.19794"
         r="0.51264942"
         transform="rotate(-90)" /><circle
         style="fill:#000000;fill-opacity:1;stroke:#000000;stroke-width:0.0454544"
         id="circle1772"
         cx="-550.16016"
         cy="580.19806"
         r="0.11651081"
         transform="rotate(-90)" /><circle
         style="fill:#000000;fill-opacity:0;stroke:#000000;stroke-width:0.2"
         id="circle1773"
         cx="-547.88715"
         cy="580.19836"
         r="0.51264942"
         transform="rotate(-90)" /><path
         style="fill:#000000;fill-opacity:1;stroke:#000000;stroke-width:0.2"
         d="m 579.86467,548.22061 0.667,-0.667"
         id="path1773" /><path
         style="fill:#000000;fill-opacity:1;stroke:#000000;stroke-width:0.2"
         d="m 580.53167,548.22061 -0.667,-0.667"
         id="path1774" /><path
         style="fill:#000000;fill-opacity:0;stroke:#000000;stroke-width:0.2"
         d="m 565.31359,571.27525 h 4.11905"
         id="path1775" /><path
         style="fill:#000000;fill-opacity:0;stroke:#000000;stroke-width:0.2"
         d="m 582.37859,548.97911 h -4.46171"
         id="path1776" /></g></g></svg>
