<?xml version="1.0" encoding="UTF-8" standalone="no"?>
<!-- Created with Inkscape (http://www.inkscape.org/) -->

<svg
   width="179.95343mm"
   height="158.62755mm"
   viewBox="0 0 179.95343 158.62755"
   version="1.1"
   id="svg1"
   xml:space="preserve"
   xmlns="http://www.w3.org/2000/svg"
   xmlns:svg="http://www.w3.org/2000/svg"><defs
     id="defs1"><linearGradient
       id="swatch2"><stop
         style="stop-color:#000000;stop-opacity:0;"
         offset="0"
         id="stop2" /></linearGradient><linearGradient
       id="swatch1"><stop
         style="stop-color:#000000;stop-opacity:0;"
         offset="0"
         id="stop1" /></linearGradient></defs><g
     id="layer2"
     transform="translate(-939.73346,-309.45625)"><g
       id="g771"><g
         id="g652"
         transform="translate(673.20423,-279.36319)"><path
           style="fill:#000000;fill-opacity:0;stroke:#000000;stroke-width:0.2"
           d="m 373.98782,655.12807 3e-4,2.575 2.4888,-10e-6 v 3.46266"
           id="path629" /><path
           style="fill:#000000;fill-opacity:0;stroke:#000000;stroke-width:0.2"
           d="m 381.23945,655.12807 -3e-4,2.57499 h -2.48833 l -4.7e-4,3.46266"
           id="path630" /><circle
           style="fill:#000000;fill-opacity:0;stroke:#000000;stroke-width:0.2"
           id="circle630"
           cx="377.61398"
           cy="659.72668"
           r="0.51264942" /><circle
           style="fill:#000000;fill-opacity:1;stroke:#000000;stroke-width:0.0454544"
           id="circle631"
           cx="377.61407"
           cy="659.72681"
           r="0.11651081" /><path
           id="path631"
           style="fill-opacity:0;stroke:#000000;stroke-width:0.2"
           d="m 336.59182,655.12807 78.90472,-3.7e-4 2.9e-4,18.9581 -78.90501,2.7e-4 z" /><path
           style="fill:#000000;fill-opacity:0;stroke:#000000;stroke-width:0.2"
           d="m 336.59182,663.08907 35.56112,-2e-5 v -7.96098"
           id="path632" /><path
           style="fill:#000000;fill-opacity:0;stroke:#000000;stroke-width:0.2"
           d="m 336.59182,666.17207 36.11203,0.1 v 7.814"
           id="path633" /><path
           style="fill:#000000;fill-opacity:0;stroke:#000000;stroke-width:0.2"
           d="m 366.82751,666.17207 v 7.914"
           id="path634" /><path
           style="fill:#000000;fill-opacity:0;stroke:#000000;stroke-width:0.2"
           d="m 358.96179,666.17207 v 7.914"
           id="path635" /><path
           style="fill:#000000;fill-opacity:0;stroke:#000000;stroke-width:0.2"
           d="m 354.76877,666.17207 v 7.914"
           id="path636" /><path
           style="fill:#000000;fill-opacity:0;stroke:#000000;stroke-width:0.2"
           d="m 351.05854,674.08607 v -7.914"
           id="path637" /><path
           style="fill:#000000;fill-opacity:0;stroke:#000000;stroke-width:0.2"
           d="m 347.02547,663.08907 v -7.961"
           id="path638" /><path
           style="fill:#000000;fill-opacity:0;stroke:#000000;stroke-width:0.225661"
           d="m 354.76877,655.12807 v 7.961"
           id="path639" /><path
           style="fill:#000000;fill-opacity:0;stroke:#000000;stroke-width:0.214086"
           d="m 351.06546,655.12807 v 7.961"
           id="path640" /><path
           style="fill:#000000;fill-opacity:0;stroke:#000000;stroke-width:0.2"
           d="m 366.82751,655.12807 v 7.961"
           id="path641" /><path
           style="fill:#000000;fill-opacity:0;stroke:#000000;stroke-width:0.2"
           d="m 336.59182,666.17207 h -4.217 l -24.664,-23.424"
           id="path642" /><path
           style="fill:#000000;fill-opacity:0;stroke:#000000;stroke-width:0.2"
           d="m 310.63882,639.66507 24.641,23.424 h 1.312"
           id="path643" /><path
           style="fill:#000000;fill-opacity:0;stroke:#000000;stroke-width:0.2"
           d="m 415.49654,666.12507 -31.42152,2e-5 v 7.96098"
           id="path644" /><path
           style="fill:#000000;fill-opacity:0;stroke:#000000;stroke-width:0.2"
           d="m 415.49654,663.04207 -31.97243,-0.1 v -7.814"
           id="path645" /><path
           style="fill:#000000;fill-opacity:0;stroke:#000000;stroke-width:0.2"
           d="m 388.6659,663.04207 v -7.914"
           id="path646" /><path
           style="fill:#000000;fill-opacity:0;stroke:#000000;stroke-width:0.2"
           d="m 393.04255,663.04207 v -7.914"
           id="path647" /><path
           style="fill:#000000;fill-opacity:0;stroke:#000000;stroke-width:0.2"
           d="m 402.59851,655.12807 v 7.914"
           id="path648" /><path
           style="fill:#000000;fill-opacity:0;stroke:#000000;stroke-width:0.2"
           d="m 407.36613,666.12507 v 7.961"
           id="path649" /><path
           style="fill:#000000;fill-opacity:0;stroke:#000000;stroke-width:0.225661"
           d="m 397.23557,674.08607 v -7.961"
           id="path650" /><path
           style="fill:#000000;fill-opacity:0;stroke:#000000;stroke-width:0.2"
           d="m 392.95073,674.08607 v -7.961"
           id="path651" /><path
           style="fill:#000000;fill-opacity:0;stroke:#000000;stroke-width:0.2"
           d="m 307.74275,642.81632 2.90757,-3.0912"
           id="path652" /></g><g
         id="g673"
         transform="translate(653.15389,-278.48335)"><g
           id="g665"
           transform="translate(303.32114,303.1941)"><g
             id="g664"
             transform="translate(-43.8277,312.42541)"><path
               style="fill:#000000;fill-opacity:0;stroke:#000000;stroke-width:0.2"
               d="m 187.09409,29.26 -9e-5,17.443 h -7.641"
               id="path653" /><path
               style="fill:#000000;fill-opacity:0;stroke:#000000;stroke-width:0.2"
               d="m 198.238,43.63 h -7.22636 v -9.749229 l 1.77536,2.29e-4 -2.1e-4,-4.621 h 2.46421"
               id="path654" /><path
               style="fill:#000000;fill-opacity:0;stroke:#000000;stroke-width:0.2"
               d="m 199.623,49.47282 -7.6323,1.8e-4 3.3e-4,19.045"
               id="path655" /><path
               style="fill:#000000;fill-opacity:0;stroke:#000000;stroke-width:0.2"
               d="m 179.453,49.473 h 7.641 l -3e-4,14.24"
               id="path656" /><path
               style="fill:#000000;fill-opacity:0;stroke:#000000;stroke-width:0.2"
               d="m 187.094,34.368808 h -7.641"
               id="path657" /><path
               style="fill:#000000;fill-opacity:0;stroke:#000000;stroke-width:0.2"
               d="m 187.094,43.642407 h -7.641"
               id="path658" /><path
               style="fill:#000000;fill-opacity:0;stroke:#000000;stroke-width:0.2"
               d="m 198.238,33.881 h -5.451"
               id="path659" /><path
               style="fill:#000000;fill-opacity:0;stroke:#000000;stroke-width:0.2"
               d="m 198.238,31.608625 h -5.451"
               id="path660" /><path
               style="fill:#000000;fill-opacity:0;stroke:#000000;stroke-width:0.2"
               d="m 187.094,56.282659 h -7.641"
               id="path661" /><path
               style="fill:#000000;fill-opacity:0;stroke:#000000;stroke-width:0.2"
               d="m 191.991,54.147 h 6.247"
               id="path662" /><path
               style="fill:#000000;fill-opacity:0;stroke:#000000;stroke-width:0.2"
               d="m 191.991,65.287561 h 6.247"
               id="path663" /><path
               style="fill:#000000;fill-opacity:0;stroke:#000000;stroke-width:0.2"
               d="m 179.453,46.703 -3.2e-4,-17.443 h 9.99845 v -3.208439 h 5.79956 l 3.1e-4,3.208439 2.987,-4.7e-4 V 43.63 l 1.38471,-4.05e-4 2.9e-4,10.517849 -1.385,-4.44e-4 v 14.371 h -11.1443 v -4.805 h -7.6407 v -14.24 l -3.37642,-1.56e-4 V 46.703 Z"
               id="path664" /></g></g><path
           style="fill:#000000;fill-opacity:0;stroke:#000000;stroke-width:0.2"
           d="m 454.74413,643.18076 h -3.39706"
           id="path665" /><path
           style="fill:#000000;fill-opacity:0;stroke:#000000;stroke-width:0.2"
           d="m 457.41283,665.09233 v -3.73977"
           id="path666" /><path
           style="fill:#000000;fill-opacity:0;stroke:#000000;stroke-width:0.2"
           d="m 455.69542,665.09233 v -3.74 h -4.21129 v 3.74"
           id="path667" /><circle
           style="fill:#000000;fill-opacity:0;stroke:#000000;stroke-width:0.2"
           id="circle667"
           cx="453.29077"
           cy="644.01294"
           r="0.51264942" /><circle
           style="fill:#000000;fill-opacity:1;stroke:#000000;stroke-width:0.0454544"
           id="circle668"
           cx="453.29086"
           cy="644.013"
           r="0.11651081" /><circle
           style="fill:#000000;fill-opacity:0;stroke:#000000;stroke-width:0.2"
           id="circle669"
           cx="453.29117"
           cy="642.43677"
           r="0.51264942" /><path
           style="fill:#000000;fill-opacity:1;stroke:#000000;stroke-width:0.2"
           d="m 452.95774,642.10314 0.667,0.667"
           id="path669" /><path
           style="fill:#000000;fill-opacity:1;stroke:#000000;stroke-width:0.2"
           d="m 452.95774,642.77014 0.667,-0.667"
           id="path670" /><circle
           style="fill:#000000;fill-opacity:0;stroke:#000000;stroke-width:0.2"
           id="circle670"
           cx="456.56714"
           cy="663.10699"
           r="0.51264942" /><circle
           style="fill:#000000;fill-opacity:1;stroke:#000000;stroke-width:0.0454544"
           id="circle671"
           cx="456.56723"
           cy="663.10706"
           r="0.11651081" /><circle
           style="fill:#000000;fill-opacity:0;stroke:#000000;stroke-width:0.2"
           id="circle672"
           cx="458.27795"
           cy="663.10736"
           r="0.51264942" /><path
           style="fill:#000000;fill-opacity:1;stroke:#000000;stroke-width:0.2"
           d="m 457.94452,662.77371 0.667,0.667"
           id="path672" /><path
           style="fill:#000000;fill-opacity:1;stroke:#000000;stroke-width:0.2"
           d="m 457.94452,663.44071 0.667,-0.667"
           id="path673" /></g><g
         id="g691"
         transform="translate(454.60812,-310.67569)"><path
           style="fill:#000000;fill-opacity:0;stroke:#000000;stroke-width:0.188503"
           d="m 529.57979,643.66155 3.45559,8.78167"
           id="path674" /><path
           style="fill:#000000;fill-opacity:0;stroke:#000000;stroke-width:0.188503"
           d="m 533.65509,648.20959 1.36748,3.47417"
           id="path675" /><path
           style="fill:#000000;fill-opacity:0;stroke:#000000;stroke-width:0.188503"
           d="m 533.71906,642.05563 -17.69705,6.9634 -2.66762,-2.12351 -4.96393,0.57582 -2.00521,4.57724 1.24901,3.17324 -11.77937,14.84293 7.41018,5.88776 m 35.47389,-25.73115 1.21059,3.07647 -14.80665,5.8264 -3.26702,4.10422 4.24315,5.73853 -2.37199,1.75388 -4.24314,-5.73854 -4.88143,1.92084 -9.90948,12.44883 -2.58676,-2.05885 12.41593,-15.59755 3.38066,-1.33232 2.26458,-2.84184 18.55125,-7.29993"
           id="path676" /><path
           style="fill:#000000;fill-opacity:0;stroke:#000000;stroke-width:0.188503"
           d="m 514.54216,661.69559 -4.25487,-3.38693 -8.59402,10.79626 4.2548,3.38702"
           id="path677" /><path
           style="fill:#000000;fill-opacity:0;stroke:#000000;stroke-width:0.188503"
           d="m 501.6925,671.84309 2.9209,2.32553"
           id="path678" /><path
           style="fill:#000000;fill-opacity:0;stroke:#000000;stroke-width:0.188503"
           d="m 506.38525,652.04858 1.95845,2.64868 3.10565,-2.29635 -1.95846,-2.64868 0.75785,-0.56036 1.95844,2.64867 3.10566,-2.29634 -1.95845,-2.64868"
           id="path679" /><path
           style="fill:#000000;fill-opacity:0;stroke:#000000;stroke-width:0.188503"
           d="m 508.39046,647.47134 1.47935,2.00071"
           id="path680" /><path
           style="fill:#000000;fill-opacity:0;stroke:#000000;stroke-width:0.188503"
           d="m 507.0696,662.35091 4.25461,3.38722"
           id="path681" /><path
           style="fill:#000000;fill-opacity:0;stroke:#000000;stroke-width:0.188503"
           d="m 504.66731,665.3688 4.25461,3.38722"
           id="path682" /><path
           style="fill:#000000;fill-opacity:0;stroke:#000000;stroke-width:0.188503"
           d="m 516.73193,648.73968 3.45559,8.78167"
           id="path683" /><path
           style="fill:#000000;fill-opacity:0;stroke:#000000;stroke-width:0.188503"
           d="m 533.63905,642.09742 3.45558,8.78167"
           id="path684" /><circle
           style="fill:#000000;fill-opacity:0;stroke:#000000;stroke-width:0.188503"
           id="circle684"
           cx="800.33173"
           cy="-258.25177"
           r="0.48317903"
           transform="rotate(68.520373)" /><circle
           style="fill:#000000;fill-opacity:1;stroke:#000000;stroke-width:0.0428414"
           id="circle685"
           cx="800.33179"
           cy="-258.25165"
           r="0.10981302"
           transform="rotate(68.520373)" /><circle
           style="fill:#000000;fill-opacity:0;stroke:#000000;stroke-width:0.188503"
           id="circle686"
           cx="800.33209"
           cy="-260.37045"
           r="0.48317903"
           transform="rotate(68.520373)" /><path
           style="fill:#000000;fill-opacity:1;stroke:#000000;stroke-width:0.188503"
           d="m 535.52262,648.99971 -0.3548,0.81519"
           id="path686" /><path
           style="fill:#000000;fill-opacity:1;stroke:#000000;stroke-width:0.188503"
           d="m 534.93763,649.22991 0.8152,0.35479"
           id="path687" /><circle
           style="fill:#000000;fill-opacity:0;stroke:#000000;stroke-width:0.188503"
           id="circle687"
           cx="-812.66998"
           cy="214.32468"
           r="0.48317903"
           transform="matrix(-0.78238676,-0.62279287,-0.62279287,0.78238676,0,0)" /><circle
           style="fill:#000000;fill-opacity:1;stroke:#000000;stroke-width:0.0428414"
           id="circle688"
           cx="-812.66992"
           cy="214.32478"
           r="0.10981301"
           transform="matrix(-0.78238676,-0.62279287,-0.62279287,0.78238676,0,0)" /><circle
           style="fill:#000000;fill-opacity:0;stroke:#000000;stroke-width:0.188503"
           id="circle689"
           cx="-812.66962"
           cy="212.20598"
           r="0.48317903"
           transform="matrix(-0.78238676,-0.62279287,-0.62279287,0.78238676,0,0)" /><path
           style="fill:#000000;fill-opacity:1;stroke:#000000;stroke-width:0.188503"
           d="m 504.10331,672.10169 -0.88337,0.10031"
           id="path689" /><path
           style="fill:#000000;fill-opacity:1;stroke:#000000;stroke-width:0.188503"
           d="m 503.71179,672.59353 -0.10033,-0.88338"
           id="path690" /><path
           style="fill:#000000;fill-opacity:0;stroke:#000000;stroke-width:0.188503"
           d="m 526.49878,644.83811 3.45559,8.78167"
           id="path691" /></g><path
         style="fill:#000000;fill-opacity:0;stroke:#000000;stroke-width:0.2;stroke-dasharray:none;stroke-opacity:1"
         d="m 1022.047,337.87274 28.178,-2e-4 v 3.4622 l 13.1579,4e-4 v 3.1164 l 10.9666,2e-4 v 1.7681 l 9.6409,-10e-5 v -1.768 h 9.702 v 1.768 h 3.9482 v 16.962 h 4.3154 v 1.1874 h -15.3029 v -7.6514 h -17.5984 v -1.6834 l -18.8297,4e-4 v 5.0802 h -28.178 z"
         id="path692" /><g
         id="g770"
         transform="translate(509.62953,-222.79051)"><path
           style="fill:#000000;fill-opacity:0;stroke:#000000;stroke-width:0.2"
           d="m 580.22265,656.2118 -4.78684,-1.5e-4 -2.2e-4,1.16931 -8.696,-8e-5 -4.8e-4,21.41296 -1.42552,4e-5 4.5e-4,4.38485 h 8.98901 v -1.27892 l 7.38124,7e-5 3e-4,-22.47264 h 0.69396 l 4e-5,-3.21544 -3.46984,-12.91309 v -7.84221 h -2.08412 v 8.44092 z"
           id="path757" /><path
           style="fill:#000000;fill-opacity:0;stroke:#000000;stroke-width:0.2"
           d="m 566.73959,660.02588 6.36,-4.5e-4 -2.4e-4,-2.64455"
           id="path758" /><path
           style="fill:#000000;fill-opacity:0;stroke:#000000;stroke-width:0.2"
           d="m 570.01259,657.38088 -1.9e-4,2.645"
           id="path759" /><path
           style="fill:#000000;fill-opacity:0;stroke:#000000;stroke-width:0.2"
           d="m 581.68459,661.07778 h -6.249 v 9.44798 h 6.249"
           id="path760" /><path
           style="fill:#000000;fill-opacity:0;stroke:#000000;stroke-width:0.2"
           d="m 575.43559,667.04125 h 6.249"
           id="path761" /><path
           style="fill:#000000;fill-opacity:0;stroke:#000000;stroke-width:0.2"
           d="m 581.68459,673.21517 h -6.249 v 8.68471"
           id="path762" /><path
           style="fill:#000000;fill-opacity:0;stroke:#000000;stroke-width:0.2"
           d="m 566.73959,661.03103 h 3.273 v 2.57285 l 3.087,-3.8e-4 v 15.19038 h -6.36"
           id="path763" /><path
           style="fill:#000000;fill-opacity:0;stroke:#000000;stroke-width:0.2"
           d="m 566.73959,669.75403 h 6.36"
           id="path764" /><path
           style="fill:#000000;fill-opacity:0;stroke:#000000;stroke-width:0.2"
           d="m 566.73959,663.60388 h 3.273"
           id="path765" /><path
           style="fill:#000000;fill-opacity:0;stroke:#000000;stroke-width:0.2"
           d="m 566.73959,675.97473 h 6.36"
           id="path766" /><circle
           style="fill:#000000;fill-opacity:0;stroke:#000000;stroke-width:0.2"
           id="circle766"
           cx="679.7984"
           cy="-567.75696"
           r="0.51264942"
           transform="rotate(90)" /><circle
           style="fill:#000000;fill-opacity:1;stroke:#000000;stroke-width:0.0454544"
           id="circle767"
           cx="679.79852"
           cy="-567.75684"
           r="0.11651081"
           transform="rotate(90)" /><circle
           style="fill:#000000;fill-opacity:0;stroke:#000000;stroke-width:0.2"
           id="circle768"
           cx="-659.79425"
           cy="580.19794"
           r="0.51264942"
           transform="rotate(-90)" /><circle
           style="fill:#000000;fill-opacity:1;stroke:#000000;stroke-width:0.0454544"
           id="circle769"
           cx="-659.79413"
           cy="580.19806"
           r="0.11651081"
           transform="rotate(-90)" /><path
           style="fill:#000000;fill-opacity:0;stroke:#000000;stroke-width:0.2"
           d="m 565.31359,680.9092 h 4.11905"
           id="path769" /><path
           style="fill:#000000;fill-opacity:0;stroke:#000000;stroke-width:0.2"
           d="m 582.37859,658.61306 h -4.46171"
           id="path770" /></g><path
         id="rect770"
         style="fill-opacity:0;stroke:#000000;stroke-width:0.2"
         d="m 998.77289,398.03113 h 18.33471 v 26.00532 h -18.33471 z" /><path
         style="fill:#000000;fill-opacity:0;stroke:#000000;stroke-width:0.2"
         d="m 941.58593,385.29947 -1.7198,-16.86718 c -0.57326,-7.76111 6.52639,-11.95035 8.99584,-18.12396 3.92465,-6.57049 4.34357,-15.58837 9.78958,-22.48958 l 24.5401,-5.75469 20.83595,0.46301 c 18.0137,-3.06475 35.3659,-6.32794 53.0489,-12.96457 1.655,0.56791 2.9826,1.72048 4.8948,1.98437 13.5446,-1.06595 24.8675,6.10001 35.6526,12.23698 15.3238,18.56493 18.4768,37.95668 21.9605,57.08385 -4.8507,17.52865 -9.7345,36.67787 -6.2177,54.37188 l -4.3657,25.92916 -4.0349,6.81302 -87.0479,-3.10885 -1.7198,-34.85885 -21.29893,0.26458 -2.05052,-40.01823 -8.26823,-9.85573 z"
         id="path771" /></g></g></svg>
