<?xml version="1.0" encoding="UTF-8" standalone="no"?>
<!-- Created with Inkscape (http://www.inkscape.org/) -->

<svg
   width="179.95349mm"
   height="158.6275mm"
   viewBox="0 0 179.95349 158.6275"
   version="1.1"
   id="svg1"
   xml:space="preserve"
   xmlns="http://www.w3.org/2000/svg"
   xmlns:svg="http://www.w3.org/2000/svg"><defs
     id="defs1"><linearGradient
       id="swatch2"><stop
         style="stop-color:#000000;stop-opacity:0;"
         offset="0"
         id="stop2" /></linearGradient><linearGradient
       id="swatch1"><stop
         style="stop-color:#000000;stop-opacity:0;"
         offset="0"
         id="stop1" /></linearGradient></defs><g
     id="layer2"
     transform="translate(-950.21031,-967.48402)"><g
       id="g1055"><g
         id="g1036"
         transform="matrix(0.87705394,-0.34512054,0.34512054,0.87705394,565.34699,886.70281)"><path
           style="fill:#000000;fill-opacity:0;stroke:#000000;stroke-width:0.2"
           d="m 368.689,279.81469 -1e-5,-5.77 14.64078,-3e-5 m 4.65101,-1e-5 17.14543,-0.11146"
           id="path1012" /><path
           style="fill:#000000;fill-opacity:0;stroke:#000000;stroke-width:0.2"
           d="m 383.32979,274.04469 10e-5,5.77"
           id="path1013" /><path
           style="fill:#000000;fill-opacity:0;stroke:#000000;stroke-width:0.2"
           d="m 387.98079,274.04469 -3e-5,5.77001"
           id="path1014" /><path
           style="fill:#000000;fill-opacity:0;stroke:#000000;stroke-width:0.2"
           d="m 394.12986,274.0447 4e-4,5.76999"
           id="path1015" /><path
           style="fill:#000000;fill-opacity:0;stroke:#000000;stroke-width:0.2"
           d="m 385.60325,275.85336 3.9e-4,3.96133"
           id="path1016" /><path
           style="fill:#000000;fill-opacity:0;stroke:#000000;stroke-width:0.2"
           d="m 370.09853,293.41943 -1.95983,-7.31416 4.82004,-2.78286 16.88226,1e-5 v -3.50773 h 15.34669 v -10.012 l -37.30813,-6.9e-4 -1.80876,-3.13294 -5.12462,-1.35999 -3.75803,3.74009 3.4e-4,3.6182 -32.30972,18.65404 5.00611,8.67059 13.29071,-7.67341 1.75405,3.03768 14.62009,-8.44091 h 5.56571 l 1.95983,7.31416 z"
           id="path1017" /><path
           style="fill:#000000;fill-opacity:0;stroke:#000000;stroke-width:0.2"
           d="m 330.88447,292.73404 2.89269,5.01074"
           id="path1018" /><path
           style="fill:#000000;fill-opacity:0;stroke:#000000;stroke-width:0.2"
           d="m 361.4936,281.74269 -2.88501,-4.99696 -12.67931,7.32036 m -4.02789,2.3255 -11.00875,6.35589 m 12.28295,-0.4289 18.31801,-10.57589 3.85536,-0.002 3.33989,-1.92597 21.15179,-1e-5"
           id="path1019" /><path
           style="fill:#000000;fill-opacity:0;stroke:#000000;stroke-width:0.2"
           d="m 352.37399,280.34528 2.88465,4.99715"
           id="path1020" /><path
           style="fill:#000000;fill-opacity:0;stroke:#000000;stroke-width:0.2"
           d="m 345.92929,284.06612 2.8849,4.99702"
           id="path1021" /><path
           style="fill:#000000;fill-opacity:0;stroke:#000000;stroke-width:0.2"
           d="m 341.90141,286.39163 2.88501,4.99695"
           id="path1022" /><path
           style="fill:#000000;fill-opacity:0;stroke:#000000;stroke-width:0.2"
           d="m 344.86473,286.76922 1.98034,3.43079"
           id="path1023" /><path
           style="fill:#000000;fill-opacity:0;stroke:#000000;stroke-width:0.2"
           d="m 357.18815,269.04916 0.90457,3.37592 3.95836,-1.06064 -0.90457,-3.37592 0.96593,-0.25882 0.90456,3.37591 3.95837,-1.06063 -0.90457,-3.37592"
           id="path1024" /><path
           style="fill:#000000;fill-opacity:0;stroke:#000000;stroke-width:0.2"
           d="m 360.94618,265.30907 0.68329,2.55004"
           id="path1025" /><path
           style="fill:#000000;fill-opacity:0;stroke:#000000;stroke-width:0.2"
           d="m 326.99986,294.99498 3.89278,-2.2475"
           id="path1026" /><path
           style="fill:#000000;fill-opacity:0;stroke:#000000;stroke-width:0.2"
           d="m 353.86132,279.48657 2.88465,4.99715"
           id="path1027" /><path
           style="fill:#000000;fill-opacity:0;stroke:#000000;stroke-width:0.2"
           d="m 350.31706,281.53285 2.88465,4.99715"
           id="path1028" /><path
           style="fill:#000000;fill-opacity:0;stroke:#000000;stroke-width:0.2"
           d="m 368.689,269.802 v 10.01269"
           id="path1029" /><circle
           style="fill:#000000;fill-opacity:0;stroke:#000000;stroke-width:0.2"
           id="circle1029"
           cx="277.69202"
           cy="-384.55853"
           r="0.51264942"
           transform="rotate(90)" /><circle
           style="fill:#000000;fill-opacity:1;stroke:#000000;stroke-width:0.0454544"
           id="circle1030"
           cx="277.69214"
           cy="-384.55841"
           r="0.11651081"
           transform="rotate(90)" /><circle
           style="fill:#000000;fill-opacity:0;stroke:#000000;stroke-width:0.2"
           id="circle1031"
           cx="277.69244"
           cy="-386.80646"
           r="0.51264942"
           transform="rotate(90)" /><path
           style="fill:#000000;fill-opacity:1;stroke:#000000;stroke-width:0.2"
           d="m 387.14011,277.35899 -0.667,0.667"
           id="path1031" /><path
           style="fill:#000000;fill-opacity:1;stroke:#000000;stroke-width:0.2"
           d="m 386.47311,277.35899 0.66701,0.667"
           id="path1032" /><circle
           style="fill:#000000;fill-opacity:0;stroke:#000000;stroke-width:0.2"
           id="circle1032"
           cx="-422.62085"
           cy="-154.07379"
           r="0.51264942"
           transform="matrix(-0.5,-0.8660254,-0.8660254,0.5,0,0)" /><circle
           style="fill:#000000;fill-opacity:1;stroke:#000000;stroke-width:0.0454544"
           id="circle1033"
           cx="-422.62076"
           cy="-154.07367"
           r="0.11651081"
           transform="matrix(-0.5,-0.8660254,-0.8660254,0.5,0,0)" /><circle
           style="fill:#000000;fill-opacity:0;stroke:#000000;stroke-width:0.2"
           id="circle1034"
           cx="-422.62042"
           cy="-156.32172"
           r="0.51264942"
           transform="matrix(-0.5,-0.8660254,-0.8660254,0.5,0,0)" /><path
           style="fill:#000000;fill-opacity:1;stroke:#000000;stroke-width:0.2"
           d="m 347.14447,287.96114 -0.91113,-0.24415"
           id="path1034" /><path
           style="fill:#000000;fill-opacity:1;stroke:#000000;stroke-width:0.2"
           d="m 346.56684,288.29463 0.24414,-0.91114"
           id="path1035" /><path
           style="fill:#000000;fill-opacity:0;stroke:#000000;stroke-width:0.2"
           d="m 399.87729,274.03787 4e-4,5.76999"
           id="path1036" /></g></g><path
       id="path963"
       style="fill-opacity:0;stroke:#000000;stroke-width:0.2"
       d="m 1009.2499,1056.059 h 18.3347 v 26.0053 h -18.3347 z" /><path
       style="fill:#000000;fill-opacity:0;stroke:#000000;stroke-width:0.2"
       d="m 952.06289,1043.3273 -1.7198,-16.8671 c -0.57326,-7.7612 6.52639,-11.9504 8.99584,-18.124 3.92465,-6.5705 4.34357,-15.58843 9.78958,-22.48963 l 24.5401,-5.7547 20.83599,0.463 c 18.0137,-3.0647 35.3659,-6.3279 53.0489,-12.9645 1.655,0.5679 2.9826,1.7204 4.8948,1.9843 13.5446,-1.0659 24.8675,6.1 35.6526,12.237 15.3238,18.56493 18.4768,37.95673 21.9605,57.08393 -4.8507,17.5286 -9.7345,36.6778 -6.2177,54.3718 l -4.3657,25.9292 -4.0349,6.813 -87.0479,-3.1088 -1.7198,-34.8589 -21.299,0.2646 -2.0505,-40.0182 -8.26822,-9.8558 z"
       id="path964" /><g
       id="g990"
       transform="translate(684.32834,415.4553)"><path
         style="fill:#000000;fill-opacity:0;stroke:#000000;stroke-width:0.2"
         d="m 373.32945,618.30351 3e-4,2.575 2.4888,-10e-6 v 3.46266 l -0.5191,3.5e-4 -3e-4,-2.87869 h -1.9697 v 2.87869"
         id="path965" /><path
         style="fill:#000000;fill-opacity:0;stroke:#000000;stroke-width:0.2"
         d="m 380.58108,618.30351 -3e-4,2.57499 h -2.48833 l -4.7e-4,3.46266 0.51947,3.5e-4 -7e-5,-2.87869 h 1.9697 l 3.7e-4,2.87869"
         id="path966" /><circle
         style="fill:#000000;fill-opacity:0;stroke:#000000;stroke-width:0.2"
         id="circle966"
         cx="376.9556"
         cy="622.90216"
         r="0.51264942" /><circle
         style="fill:#000000;fill-opacity:0;stroke:#000000;stroke-width:0.2"
         id="circle967"
         cx="374.31412"
         cy="622.90216"
         r="0.51264942" /><circle
         style="fill:#000000;fill-opacity:0;stroke:#000000;stroke-width:0.2"
         id="circle968"
         cx="379.59662"
         cy="622.90216"
         r="0.51264942" /><circle
         style="fill:#000000;fill-opacity:1;stroke:#000000;stroke-width:0.0454544"
         id="circle969"
         cx="376.95569"
         cy="622.90222"
         r="0.11651081" /><path
         style="fill:#000000;fill-opacity:1;stroke:#000000;stroke-width:0.2"
         d="m 373.98045,622.56851 0.667,0.667"
         id="path969" /><path
         style="fill:#000000;fill-opacity:1;stroke:#000000;stroke-width:0.2"
         d="m 373.98045,623.23551 0.667,-0.667"
         id="path970" /><path
         style="fill:#000000;fill-opacity:1;stroke:#000000;stroke-width:0.2"
         d="m 379.26316,622.56851 0.667,0.667"
         id="path971" /><path
         style="fill:#000000;fill-opacity:1;stroke:#000000;stroke-width:0.2"
         d="m 379.26316,623.23551 0.667,-0.667"
         id="path972" /><path
         id="path973"
         style="fill-opacity:0;stroke:#000000;stroke-width:0.2"
         d="m 335.93345,618.30351 78.90501,-3.7e-4 v 18.9581 l -78.90501,2.7e-4 z" /><path
         style="fill:#000000;fill-opacity:0;stroke:#000000;stroke-width:0.2"
         d="m 390.67045,618.30351 v 18.958"
         id="path974" /><path
         style="fill:#000000;fill-opacity:0;stroke:#000000;stroke-width:0.2"
         d="m 335.93345,626.26451 35.56112,-2e-5 v -7.96098"
         id="path975" /><path
         style="fill:#000000;fill-opacity:0;stroke:#000000;stroke-width:0.2"
         d="m 335.93345,629.34751 36.11203,0.1 v 7.814"
         id="path976" /><path
         style="fill:#000000;fill-opacity:0;stroke:#000000;stroke-width:0.2"
         d="m 367.82186,629.34751 v 7.914"
         id="path977" /><path
         style="fill:#000000;fill-opacity:0;stroke:#000000;stroke-width:0.2"
         d="m 359.71129,629.34751 v 7.914"
         id="path978" /><path
         style="fill:#000000;fill-opacity:0;stroke:#000000;stroke-width:0.2"
         d="m 354.1104,629.34751 v 7.914"
         id="path979" /><path
         style="fill:#000000;fill-opacity:0;stroke:#000000;stroke-width:0.2"
         d="m 346.3671,637.26151 v -7.914"
         id="path980" /><path
         style="fill:#000000;fill-opacity:0;stroke:#000000;stroke-width:0.2"
         d="m 382.20345,618.30351 6e-5,8.35025 8.46694,-0.004 m -8.46672,10.61142 -2e-4,-7.83776 8.46692,-0.0188"
         id="path981" /><path
         style="fill:#000000;fill-opacity:0;stroke:#000000;stroke-width:0.2"
         d="m 346.3671,626.26451 v -7.961"
         id="path982" /><path
         style="fill:#000000;fill-opacity:0;stroke:#000000;stroke-width:0.225661"
         d="m 350.37647,618.30351 v 7.961"
         id="path983" /><path
         style="fill:#000000;fill-opacity:0;stroke:#000000;stroke-width:0.214086"
         d="m 358.30342,618.30351 v 7.961"
         id="path984" /><path
         style="fill:#000000;fill-opacity:0;stroke:#000000;stroke-width:0.2"
         d="m 366.16914,618.30351 v 7.961"
         id="path985" /><path
         style="fill:#000000;fill-opacity:0;stroke:#000000;stroke-width:0.2"
         d="m 335.93345,629.34751 h -4.217 l -2.57157,-2.45197 1.37888,-1.50751 -22.00301,-20.99153 1.46545,-1.55077 24.63525,23.41878 h 1.312"
         id="path986" /><path
         style="fill:#000000;fill-opacity:0;stroke:#000000;stroke-width:0.2"
         d="m 350.16223,637.26151 v -7.914"
         id="path987" /><path
         style="fill:#000000;fill-opacity:0;stroke:#000000;stroke-width:0.2"
         d="m 363.53703,629.34751 v 7.914"
         id="path988" /><circle
         style="fill:#000000;fill-opacity:0;stroke:#000000;stroke-width:0.2"
         id="circle988"
         cx="322.14362"
         cy="615.83899"
         r="0.51264942" /><path
         style="fill:#000000;fill-opacity:1;stroke:#000000;stroke-width:0.2"
         d="m 321.80994,615.50529 0.667,0.667"
         id="path989" /><path
         style="fill:#000000;fill-opacity:1;stroke:#000000;stroke-width:0.2"
         d="m 321.80994,616.17229 0.667,-0.667"
         id="path990" /></g><g
       id="g1011"
       transform="matrix(0.99998212,0,0,1,663.63877,425.84698)"><g
         id="g1003"
         transform="translate(303.32114,256.89202)"><g
           id="g1002"
           transform="translate(-43.8277,312.42541)"><path
             style="fill:#000000;fill-opacity:0;stroke:#000000;stroke-width:0.2"
             d="m 187.09409,29.26 -9e-5,17.443 h -7.641"
             id="path991" /><path
             style="fill:#000000;fill-opacity:0;stroke:#000000;stroke-width:0.2"
             d="m 198.238,43.63 h -7.22636 l 4.6e-4,-9.749229 1.7749,2.29e-4 -2.1e-4,-4.621 h 2.46421"
             id="path992" /><path
             style="fill:#000000;fill-opacity:0;stroke:#000000;stroke-width:0.2"
             d="m 199.623,49.47282 -7.6323,1.8e-4 3.3e-4,19.045"
             id="path993" /><path
             style="fill:#000000;fill-opacity:0;stroke:#000000;stroke-width:0.2"
             d="m 179.453,49.473 h 7.641 l -3e-4,14.24"
             id="path994" /><path
             style="fill:#000000;fill-opacity:0;stroke:#000000;stroke-width:0.2"
             d="m 187.094,36.305468 h -7.641"
             id="path995" /><path
             style="fill:#000000;fill-opacity:0;stroke:#000000;stroke-width:0.2"
             d="m 187.094,41.449961 h -7.641"
             id="path996" /><path
             style="fill:#000000;fill-opacity:0;stroke:#000000;stroke-width:0.2"
             d="m 198.238,33.881 h -5.451"
             id="path997" /><path
             style="fill:#000000;fill-opacity:0;stroke:#000000;stroke-width:0.2"
             d="m 195.2511,29.260279 v 2.348346 h -2.4641"
             id="path998" /><path
             style="fill:#000000;fill-opacity:0;stroke:#000000;stroke-width:0.2"
             d="m 191.991,56.302905 h 6.247"
             id="path999" /><path
             style="fill:#000000;fill-opacity:0;stroke:#000000;stroke-width:0.2"
             d="m 191.991,59.972233 h 6.247"
             id="path1000" /><path
             style="fill:#000000;fill-opacity:0;stroke:#000000;stroke-width:0.2"
             d="m 179.453,46.703 -3.2e-4,-17.443 h 9.99845 v -3.208439 h 5.79956 l 4.1e-4,3.208718 2.9869,-7.49e-4 V 43.63 l 1.38471,-4.05e-4 2.9e-4,10.517849 -1.385,-4.44e-4 v 14.371 h -11.1443 v -4.805 h -7.6407 v -14.24 l -3.37642,-1.56e-4 V 46.703 Z"
             id="path1001" /><path
             style="fill:#000000;fill-opacity:0;stroke:#000000;stroke-width:0.2"
             d="m 198.238,38.72265 h -7.2259"
             id="path1002" /></g></g><path
         style="fill:#000000;fill-opacity:0;stroke:#000000;stroke-width:0.2"
         d="m 454.74413,596.87868 h -3.39706"
         id="path1003" /><path
         style="fill:#000000;fill-opacity:0;stroke:#000000;stroke-width:0.2"
         d="m 457.41283,618.79025 v -3.73977"
         id="path1004" /><path
         style="fill:#000000;fill-opacity:0;stroke:#000000;stroke-width:0.2"
         d="m 455.69542,618.79025 v -3.74 h -4.21129 v 3.74"
         id="path1005" /><circle
         style="fill:#000000;fill-opacity:0;stroke:#000000;stroke-width:0.2"
         id="circle1005"
         cx="453.29077"
         cy="597.71082"
         r="0.51264942" /><circle
         style="fill:#000000;fill-opacity:1;stroke:#000000;stroke-width:0.0454544"
         id="circle1006"
         cx="453.29086"
         cy="597.71094"
         r="0.11651081" /><circle
         style="fill:#000000;fill-opacity:0;stroke:#000000;stroke-width:0.2"
         id="circle1007"
         cx="453.29117"
         cy="596.1347"
         r="0.51264942" /><path
         style="fill:#000000;fill-opacity:1;stroke:#000000;stroke-width:0.2"
         d="m 452.95774,595.80106 0.667,0.667"
         id="path1007" /><path
         style="fill:#000000;fill-opacity:1;stroke:#000000;stroke-width:0.2"
         d="m 452.95774,596.46806 0.667,-0.667"
         id="path1008" /><circle
         style="fill:#000000;fill-opacity:0;stroke:#000000;stroke-width:0.2"
         id="circle1008"
         cx="456.56714"
         cy="616.80487"
         r="0.51264942" /><circle
         style="fill:#000000;fill-opacity:1;stroke:#000000;stroke-width:0.0454544"
         id="circle1009"
         cx="456.56723"
         cy="616.80499"
         r="0.11651081" /><circle
         style="fill:#000000;fill-opacity:0;stroke:#000000;stroke-width:0.2"
         id="circle1010"
         cx="458.27795"
         cy="616.8053"
         r="0.51264942" /><path
         style="fill:#000000;fill-opacity:1;stroke:#000000;stroke-width:0.2"
         d="m 457.94452,616.47163 0.667,0.667"
         id="path1010" /><path
         style="fill:#000000;fill-opacity:1;stroke:#000000;stroke-width:0.2"
         d="m 457.94452,617.13863 0.667,-0.667"
         id="path1011" /></g><g
       id="g1054"
       transform="translate(520.10642,494.35752)"><path
         style="fill:#000000;fill-opacity:0;stroke:#000000;stroke-width:0.2"
         d="m 580.22265,597.09178 -4.78684,-1.5e-4 -2.2e-4,1.16931 -8.696,-8e-5 -4.8e-4,21.41296 -1.42552,4e-5 4.5e-4,4.38485 h 8.98901 v -1.27892 l 7.38124,7e-5 3e-4,-22.47264 h 0.69396 l 4e-5,-3.21544 -3.46984,-12.91309 v -7.84221 h -2.08412 v 8.44092 z"
         id="path1037" /><path
         style="fill:#000000;fill-opacity:0;stroke:#000000;stroke-width:0.2"
         d="m 566.73959,600.90586 6.36,-4.5e-4 -2.4e-4,-2.64455"
         id="path1038" /><path
         style="fill:#000000;fill-opacity:0;stroke:#000000;stroke-width:0.2"
         d="m 570.01259,598.26086 -1.9e-4,2.645"
         id="path1039" /><path
         style="fill:#000000;fill-opacity:0;stroke:#000000;stroke-width:0.2"
         d="m 581.68459,601.95776 h -6.249 l 4.1e-4,12.13724"
         id="path1040" /><path
         style="fill:#000000;fill-opacity:0;stroke:#000000;stroke-width:0.2"
         d="m 575.43559,607.92123 h 6.249"
         id="path1041" /><path
         style="fill:#000000;fill-opacity:0;stroke:#000000;stroke-width:0.2"
         d="m 581.68459,614.09515 -6.24859,-1.5e-4 -4.1e-4,8.68486"
         id="path1042" /><path
         style="fill:#000000;fill-opacity:0;stroke:#000000;stroke-width:0.2"
         d="m 566.73959,601.91101 h 3.273 v 2.57285 l 3.087,-3.8e-4 v 15.19038 h -6.36"
         id="path1043" /><path
         style="fill:#000000;fill-opacity:0;stroke:#000000;stroke-width:0.2"
         d="m 566.73959,610.63401 h 6.36"
         id="path1044" /><path
         style="fill:#000000;fill-opacity:0;stroke:#000000;stroke-width:0.2"
         d="m 566.73959,604.48386 h 3.273"
         id="path1045" /><path
         style="fill:#000000;fill-opacity:0;stroke:#000000;stroke-width:0.2"
         d="m 566.73959,613.65082 h 6.36"
         id="path1046" /><circle
         style="fill:#000000;fill-opacity:0;stroke:#000000;stroke-width:0.2"
         id="circle1046"
         cx="620.67841"
         cy="-567.75696"
         r="0.51264942"
         transform="rotate(90)" /><circle
         style="fill:#000000;fill-opacity:1;stroke:#000000;stroke-width:0.0454544"
         id="circle1047"
         cx="620.67853"
         cy="-567.75684"
         r="0.11651081"
         transform="rotate(90)" /><circle
         style="fill:#000000;fill-opacity:0;stroke:#000000;stroke-width:0.2"
         id="circle1048"
         cx="622.78613"
         cy="-567.75653"
         r="0.51264942"
         transform="rotate(90)" /><path
         style="fill:#000000;fill-opacity:1;stroke:#000000;stroke-width:0.2"
         d="m 568.09022,622.45262 -0.667,0.667"
         id="path1048" /><path
         style="fill:#000000;fill-opacity:1;stroke:#000000;stroke-width:0.2"
         d="m 567.42322,622.45262 0.667,0.667"
         id="path1049" /><circle
         style="fill:#000000;fill-opacity:0;stroke:#000000;stroke-width:0.2"
         id="circle1049"
         cx="-600.67426"
         cy="580.19794"
         r="0.51264942"
         transform="rotate(-90)" /><circle
         style="fill:#000000;fill-opacity:1;stroke:#000000;stroke-width:0.0454544"
         id="circle1050"
         cx="-600.67413"
         cy="580.19806"
         r="0.11651081"
         transform="rotate(-90)" /><circle
         style="fill:#000000;fill-opacity:0;stroke:#000000;stroke-width:0.2"
         id="circle1051"
         cx="-598.40118"
         cy="580.19836"
         r="0.51264942"
         transform="rotate(-90)" /><path
         style="fill:#000000;fill-opacity:1;stroke:#000000;stroke-width:0.2"
         d="m 579.86467,598.73454 0.667,-0.667"
         id="path1051" /><path
         style="fill:#000000;fill-opacity:1;stroke:#000000;stroke-width:0.2"
         d="m 580.53167,598.73454 -0.667,-0.667"
         id="path1052" /><path
         style="fill:#000000;fill-opacity:0;stroke:#000000;stroke-width:0.2"
         d="m 565.31359,621.78918 h 4.11905"
         id="path1053" /><path
         style="fill:#000000;fill-opacity:0;stroke:#000000;stroke-width:0.2"
         d="m 582.37859,599.49304 h -4.46171"
         id="path1054" /></g><path
       style="fill:#000000;fill-opacity:0;stroke:#000000;stroke-width:0.2;stroke-dasharray:none;stroke-opacity:1"
       d="m 1060.702,999.36224 13.1579,4.2e-4 v 3.11644 l 10.9666,10e-5 v 1.7681 l 9.6409,-10e-5 v -1.768 h 9.702 v 1.768 h 3.9482 v 16.962 h 4.3154 v 1.1875 h -15.3029 v -7.6515 h -17.5984 v -1.6833 l -18.8297,3e-4"
       id="path1056" /><path
       style="fill:#000000;fill-opacity:0;stroke:#000000;stroke-width:0.2"
       d="m 1060.702,999.36224 h -0.9112 l 2e-4,1.70206 h -19.7104 v 10.6815 h 19.7104 v 1.3164 h 0.911"
       id="path1057" /></g></svg>
